<svg width="29" height="29" viewBox="0 0 29 29" fill="none" xmlns="http://www.w3.org/2000/svg">
<path d="M9.8054 17.1288C9.92004 17.0141 9.99244 16.8573 9.99244 16.6763L9.99244 9.99134H16.6774C17.0273 9.99134 17.3169 9.70174 17.3169 9.35181C17.3169 9.00187 17.0273 8.71227 16.6774 8.71227L9.3529 8.71228C9.00297 8.71228 8.71337 9.00187 8.71337 9.35181L8.71337 16.6763C8.71337 17.0262 9.00297 17.3158 9.3529 17.3158C9.52787 17.3218 9.69077 17.2434 9.8054 17.1288Z" fill="#229924"/>
<path d="M20.0592 20.0609C20.3066 19.8135 20.3066 19.4033 20.0592 19.1559L9.90513 9.00182C9.65777 8.75445 9.2475 8.75445 9.00013 9.00182C8.75277 9.24918 8.75277 9.65945 9.00013 9.90681L19.1542 20.0609C19.4016 20.3083 19.8118 20.3083 20.0592 20.0609Z" fill="#229924"/>
</svg>
