<svg width="37" height="37" viewBox="0 0 37 37" fill="none" xmlns="http://www.w3.org/2000/svg">
<path d="M33.9154 32.7603H3.08203C2.44995 32.7603 1.92578 33.2844 1.92578 33.9165C1.92578 34.5486 2.44995 35.0728 3.08203 35.0728H33.9154C34.5474 35.0728 35.0716 34.5486 35.0716 33.9165C35.0716 33.2844 34.5474 32.7603 33.9154 32.7603Z" fill="#229924"/>
<path d="M26.2083 3.0835H10.7917C6.16667 3.0835 4.625 5.84308 4.625 9.25016V33.9168H32.375V9.25016C32.375 5.84308 30.8333 3.0835 26.2083 3.0835ZM15.4167 26.5939H10.7917C10.1596 26.5939 9.63542 26.0697 9.63542 25.4377C9.63542 24.8056 10.1596 24.2814 10.7917 24.2814H15.4167C16.0487 24.2814 16.5729 24.8056 16.5729 25.4377C16.5729 26.0697 16.0487 26.5939 15.4167 26.5939ZM15.4167 19.6564H10.7917C10.1596 19.6564 9.63542 19.1322 9.63542 18.5002C9.63542 17.8681 10.1596 17.3439 10.7917 17.3439H15.4167C16.0487 17.3439 16.5729 17.8681 16.5729 18.5002C16.5729 19.1322 16.0487 19.6564 15.4167 19.6564ZM15.4167 12.7189H10.7917C10.1596 12.7189 9.63542 12.1947 9.63542 11.5627C9.63542 10.9306 10.1596 10.4064 10.7917 10.4064H15.4167C16.0487 10.4064 16.5729 10.9306 16.5729 11.5627C16.5729 12.1947 16.0487 12.7189 15.4167 12.7189ZM26.2083 26.5939H21.5833C20.9513 26.5939 20.4271 26.0697 20.4271 25.4377C20.4271 24.8056 20.9513 24.2814 21.5833 24.2814H26.2083C26.8404 24.2814 27.3646 24.8056 27.3646 25.4377C27.3646 26.0697 26.8404 26.5939 26.2083 26.5939ZM26.2083 19.6564H21.5833C20.9513 19.6564 20.4271 19.1322 20.4271 18.5002C20.4271 17.8681 20.9513 17.3439 21.5833 17.3439H26.2083C26.8404 17.3439 27.3646 17.8681 27.3646 18.5002C27.3646 19.1322 26.8404 19.6564 26.2083 19.6564ZM26.2083 12.7189H21.5833C20.9513 12.7189 20.4271 12.1947 20.4271 11.5627C20.4271 10.9306 20.9513 10.4064 21.5833 10.4064H26.2083C26.8404 10.4064 27.3646 10.9306 27.3646 11.5627C27.3646 12.1947 26.8404 12.7189 26.2083 12.7189Z" fill="#229924"/>
</svg>
