<svg width="37" height="37" viewBox="0 0 37 37" fill="none" xmlns="http://www.w3.org/2000/svg">
<path d="M32.7591 14.1064C29.1979 8.51017 23.987 5.28809 18.4987 5.28809C15.7545 5.28809 13.0874 6.08975 10.6516 7.58517C8.21578 9.096 6.02661 11.3006 4.23828 14.1064C2.69661 16.5268 2.69661 20.4581 4.23828 22.8785C7.79953 28.4902 13.0104 31.6968 18.4987 31.6968C21.2429 31.6968 23.9099 30.8952 26.3458 29.3998C28.7816 27.8889 30.9708 25.6843 32.7591 22.8785C34.3008 20.4735 34.3008 16.5268 32.7591 14.1064ZM18.4987 24.7285C15.0454 24.7285 12.2704 21.9381 12.2704 18.5002C12.2704 15.0623 15.0454 12.2718 18.4987 12.2718C21.952 12.2718 24.727 15.0623 24.727 18.5002C24.727 21.9381 21.952 24.7285 18.4987 24.7285Z" fill="white"/>
<path d="M18.4992 14.0908C16.0788 14.0908 14.1055 16.0642 14.1055 18.5C14.1055 20.9204 16.0788 22.8937 18.4992 22.8937C20.9196 22.8937 22.9084 20.9204 22.9084 18.5C22.9084 16.0796 20.9196 14.0908 18.4992 14.0908Z" fill="white"/>
</svg>
