<svg width="37" height="37" viewBox="0 0 37 37" fill="none" xmlns="http://www.w3.org/2000/svg">
<path d="M11.795 32.2363C11.7488 32.2363 11.6871 32.2672 11.6408 32.2672C8.65 30.7872 6.21417 28.3359 4.71875 25.3451C4.71875 25.2988 4.74958 25.2372 4.74958 25.1909C6.63042 25.7459 8.57292 26.1622 10.5 26.4859C10.8392 28.4284 11.24 30.3555 11.795 32.2363Z" fill="#229924"/>
<path d="M32.282 25.3605C30.7558 28.4284 28.212 30.9105 25.1133 32.4059C25.6991 30.448 26.1924 28.4747 26.5162 26.4859C28.4587 26.1622 30.3704 25.7459 32.2512 25.1909C32.2358 25.2526 32.282 25.3143 32.282 25.3605Z" fill="#229924"/>
<path d="M32.4054 11.8863C30.4629 11.3005 28.5049 10.8226 26.5162 10.4834C26.1924 8.49466 25.7145 6.52132 25.1133 4.59424C28.3045 6.12049 30.8791 8.69507 32.4054 11.8863Z" fill="#229924"/>
<path d="M11.7933 4.76354C11.2383 6.64437 10.8375 8.55604 10.5138 10.4985C8.525 10.8069 6.55167 11.3002 4.59375 11.886C6.08917 8.78729 8.57125 6.24354 11.6392 4.71729C11.6854 4.71729 11.7471 4.76354 11.7933 4.76354Z" fill="#229924"/>
<path d="M23.8819 10.1597C20.3053 9.75891 16.6978 9.75891 13.1211 10.1597C13.5065 8.04766 13.9998 5.93558 14.6936 3.90058C14.7244 3.77725 14.709 3.68475 14.7244 3.56141C15.9423 3.2685 17.1911 3.0835 18.5015 3.0835C19.7965 3.0835 21.0607 3.2685 22.2632 3.56141C22.2786 3.68475 22.2786 3.77725 22.3094 3.90058C23.0032 5.951 23.4965 8.04766 23.8819 10.1597Z" fill="#229924"/>
<path d="M10.1583 23.8805C8.03078 23.495 5.93411 23.0017 3.89911 22.308C3.77578 22.2771 3.68328 22.2925 3.55995 22.2771C3.26703 21.0592 3.08203 19.8105 3.08203 18.5C3.08203 17.205 3.26703 15.9409 3.55995 14.7384C3.68328 14.723 3.77578 14.723 3.89911 14.6921C5.94953 14.0138 8.03078 13.505 10.1583 13.1196C9.77286 16.6963 9.77286 20.3038 10.1583 23.8805Z" fill="#229924"/>
<path d="M33.9161 18.5C33.9161 19.8105 33.7311 21.0592 33.4382 22.2771C33.3148 22.2925 33.2223 22.2771 33.099 22.308C31.0486 22.9863 28.9519 23.495 26.8398 23.8805C27.2407 20.3038 27.2407 16.6963 26.8398 13.1196C28.9519 13.505 31.064 13.9984 33.099 14.6921C33.2223 14.723 33.3148 14.7384 33.4382 14.7384C33.7311 15.9563 33.9161 17.205 33.9161 18.5Z" fill="#229924"/>
<path d="M23.8819 26.8403C23.4965 28.9678 23.0032 31.0645 22.3094 33.0995C22.2786 33.2228 22.2786 33.3153 22.2632 33.4387C21.0607 33.7316 19.7965 33.9166 18.5015 33.9166C17.1911 33.9166 15.9423 33.7316 14.7244 33.4387C14.709 33.3153 14.7244 33.2228 14.6936 33.0995C14.0153 31.0491 13.5065 28.9678 13.1211 26.8403C14.9094 27.0407 16.6978 27.1795 18.5015 27.1795C20.3053 27.1795 22.109 27.0407 23.8819 26.8403Z" fill="#229924"/>
<path d="M24.3005 24.302C20.4446 24.7885 16.5528 24.7885 12.6969 24.302C12.2104 20.4461 12.2104 16.5542 12.6969 12.6984C16.5528 12.2119 20.4446 12.2119 24.3005 12.6984C24.787 16.5542 24.787 20.4461 24.3005 24.302Z" fill="#229924"/>
</svg>
