<svg width="37" height="37" viewBox="0 0 37 37" fill="none" xmlns="http://www.w3.org/2000/svg">
<path d="M24.9583 3.0835H12.0391C6.42745 3.0835 3.08203 6.42891 3.08203 12.0406V24.9443C3.08203 30.5714 6.42745 33.9168 12.0391 33.9168H24.9429C30.5545 33.9168 33.8999 30.5714 33.8999 24.9597V12.0406C33.9154 6.42891 30.5699 3.0835 24.9583 3.0835ZM11.7616 27.9814C11.7616 28.6135 11.2374 29.1377 10.6054 29.1377C9.97328 29.1377 9.44911 28.6135 9.44911 27.9814V24.7902C9.44911 24.1581 9.97328 23.6339 10.6054 23.6339C11.2374 23.6339 11.7616 24.1581 11.7616 24.7902V27.9814ZM19.6549 27.9814C19.6549 28.6135 19.1308 29.1377 18.4987 29.1377C17.8666 29.1377 17.3424 28.6135 17.3424 27.9814V21.5835C17.3424 20.9514 17.8666 20.4272 18.4987 20.4272C19.1308 20.4272 19.6549 20.9514 19.6549 21.5835V27.9814ZM27.5483 27.9814C27.5483 28.6135 27.0241 29.1377 26.392 29.1377C25.7599 29.1377 25.2358 28.6135 25.2358 27.9814V18.3922C25.2358 17.7602 25.7599 17.236 26.392 17.236C27.0241 17.236 27.5483 17.7602 27.5483 18.3922V27.9814ZM27.5483 13.5206C27.5483 14.1527 27.0241 14.6768 26.392 14.6768C25.7599 14.6768 25.2358 14.1527 25.2358 13.5206V12.0252C21.3045 16.0643 16.3866 18.9164 10.8829 20.2885C10.7904 20.3193 10.6979 20.3193 10.6054 20.3193C10.0812 20.3193 9.6187 19.9647 9.47995 19.4406C9.32578 18.8239 9.69578 18.1918 10.3279 18.0377C15.5233 16.7427 20.1483 14.0139 23.8174 10.1597H21.8904C21.2583 10.1597 20.7341 9.63558 20.7341 9.0035C20.7341 8.37141 21.2583 7.84725 21.8904 7.84725H26.4074C26.4691 7.84725 26.5154 7.87808 26.577 7.87808C26.6541 7.8935 26.7312 7.8935 26.8083 7.92433C26.8854 7.95516 26.947 8.00141 27.0241 8.04766C27.0704 8.0785 27.1166 8.09391 27.1629 8.12475C27.1783 8.14016 27.1783 8.15558 27.1937 8.15558C27.2554 8.21725 27.3016 8.27891 27.3479 8.34058C27.3941 8.40225 27.4404 8.4485 27.4558 8.51016C27.4866 8.57183 27.4866 8.6335 27.502 8.71058C27.5174 8.78766 27.5483 8.86475 27.5483 8.95725C27.5483 8.97266 27.5637 8.98808 27.5637 9.0035V13.5206H27.5483Z" fill="#229924"/>
</svg>
