<svg width="37" height="37" viewBox="0 0 37 37" fill="none" xmlns="http://www.w3.org/2000/svg">
<path d="M30.0763 9.01891L20.9187 3.731C19.4233 2.86766 17.5733 2.86766 16.0625 3.731L6.92042 9.01891C5.425 9.88225 4.5 11.4856 4.5 13.2277V23.7727C4.5 25.4993 5.425 27.1027 6.92042 27.9814L16.0779 33.2693C17.5733 34.1327 19.4233 34.1327 20.9342 33.2693L30.0917 27.9814C31.5871 27.1181 32.5121 25.5147 32.5121 23.7727V13.2277C32.4967 11.4856 31.5717 9.89766 30.0763 9.01891ZM18.4983 11.316C20.4871 11.316 22.0904 12.9193 22.0904 14.9081C22.0904 16.8968 20.4871 18.5002 18.4983 18.5002C16.5096 18.5002 14.9062 16.8968 14.9062 14.9081C14.9062 12.9347 16.5096 11.316 18.4983 11.316ZM22.63 25.6843H14.3667C13.1179 25.6843 12.3933 24.2968 13.0871 23.2639C14.1354 21.7068 16.1704 20.6585 18.4983 20.6585C20.8263 20.6585 22.8612 21.7068 23.9096 23.2639C24.6033 24.2814 23.8633 25.6843 22.63 25.6843Z" fill="#229924"/>
</svg>
