<svg width="16" height="16" viewBox="0 0 16 16" fill="none" xmlns="http://www.w3.org/2000/svg">
<path d="M6.38057 12.5467C6.50724 12.5467 6.63391 12.5001 6.73391 12.4001C6.92724 12.2067 6.92724 11.8867 6.73391 11.6934L3.04057 8.00008L6.73391 4.30674C6.92724 4.11341 6.92724 3.79341 6.73391 3.60008C6.54057 3.40674 6.22057 3.40674 6.02724 3.60008L1.98057 7.64674C1.78724 7.84008 1.78724 8.16008 1.98057 8.35341L6.02724 12.4001C6.12724 12.5001 6.25391 12.5467 6.38057 12.5467Z" fill="white"/>
<path d="M2.44797 8.5H13.668C13.9413 8.5 14.168 8.27333 14.168 8C14.168 7.72667 13.9413 7.5 13.668 7.5H2.44797C2.17463 7.5 1.94797 7.72667 1.94797 8C1.94797 8.27333 2.17463 8.5 2.44797 8.5Z" fill="white"/>
</svg>
