<svg width="20" height="20" viewBox="0 0 20 20" fill="none" xmlns="http://www.w3.org/2000/svg">
<path d="M10.0008 18.958C9.50078 18.958 9.00911 18.8413 8.60911 18.6163L4.66745 16.3413C3.03411 15.2413 2.92578 15.0413 2.92578 13.3163V9.183C2.92578 7.458 3.03411 7.258 4.63411 6.183L8.61745 3.883C9.40911 3.42466 10.6008 3.42466 11.3924 3.883L15.3341 6.158C16.9674 7.258 17.0758 7.458 17.0758 9.183V13.3163C17.0758 15.0413 16.9674 15.2413 15.3674 16.3163L11.3841 18.6163C10.9924 18.8497 10.4924 18.958 10.0008 18.958ZM10.0008 4.79133C9.71745 4.79133 9.43411 4.84966 9.23411 4.96633L5.29245 7.24133C4.17578 7.99966 4.17578 7.99966 4.17578 9.183V13.3163C4.17578 14.4997 4.17578 14.4997 5.33411 15.283L9.24245 17.533C9.64245 17.7663 10.3674 17.7663 10.7674 17.533L14.7091 15.258C15.8258 14.4997 15.8258 14.4997 15.8258 13.3163V9.183C15.8258 7.99966 15.8258 7.99966 14.6674 7.21633L10.7591 4.96633C10.5674 4.84966 10.2841 4.79133 10.0008 4.79133Z" fill="url(#paint0_linear_1162_5905)"/>
<path d="M14.5827 6.98335C14.241 6.98335 13.9577 6.70002 13.9577 6.35835V4.16669C13.9577 2.85002 13.3993 2.29169 12.0827 2.29169H7.91602C6.59935 2.29169 6.04102 2.85002 6.04102 4.16669V6.30002C6.04102 6.64169 5.75768 6.92502 5.41602 6.92502C5.07435 6.92502 4.79102 6.65002 4.79102 6.30002V4.16669C4.79102 2.15002 5.89935 1.04169 7.91602 1.04169H12.0827C14.0993 1.04169 15.2077 2.15002 15.2077 4.16669V6.35835C15.2077 6.70002 14.9243 6.98335 14.5827 6.98335Z" fill="url(#paint1_linear_1162_5905)"/>
<path d="M11.3589 14.6918C11.1839 14.6918 11.0005 14.6584 10.8172 14.5834L10.0005 14.2668L9.18386 14.5918C8.74219 14.7668 8.29219 14.7251 7.95886 14.4834C7.62552 14.2418 7.45052 13.8251 7.47552 13.3501L7.52552 12.4751L6.96719 11.8001C6.66719 11.4251 6.56719 10.9918 6.70052 10.5918C6.82552 10.2001 7.16719 9.9001 7.62552 9.78343L8.47552 9.56676L8.95052 8.8251C9.45886 8.0251 10.5505 8.0251 11.0589 8.8251L11.5339 9.56676L12.3839 9.78343C12.8422 9.9001 13.1839 10.2001 13.3089 10.5918C13.4339 10.9834 13.3339 11.4251 13.0339 11.7918L12.4755 12.4668L12.5255 13.3418C12.5505 13.8168 12.3755 14.2251 12.0422 14.4751C11.8422 14.6168 11.6089 14.6918 11.3589 14.6918ZM7.93386 11.0001L8.49219 11.6751C8.68386 11.9001 8.79219 12.2584 8.77552 12.5501L8.72552 13.4251L9.54219 13.1001C9.81719 12.9918 10.1839 12.9918 10.4589 13.1001L11.2755 13.4251L11.2255 12.5501C11.2089 12.2584 11.3172 11.9084 11.5089 11.6751L12.0672 11.0001L11.2172 10.7834C10.9339 10.7084 10.6339 10.4918 10.4755 10.2501L10.0089 9.51676L9.53386 10.2501C9.37552 10.5001 9.07552 10.7168 8.79219 10.7918L7.93386 11.0001Z" fill="url(#paint2_linear_1162_5905)"/>
<defs>
<linearGradient id="paint0_linear_1162_5905" x1="10.0008" y1="3.53925" x2="10.0008" y2="18.958" gradientUnits="userSpaceOnUse">
<stop stop-color="#00AFEC"/>
<stop offset="1" stop-color="#2F6BC3"/>
</linearGradient>
<linearGradient id="paint1_linear_1162_5905" x1="9.99935" y1="1.04169" x2="9.99935" y2="6.98335" gradientUnits="userSpaceOnUse">
<stop stop-color="#00AFEC"/>
<stop offset="1" stop-color="#2F6BC3"/>
</linearGradient>
<linearGradient id="paint2_linear_1162_5905" x1="10.002" y1="8.2251" x2="10.002" y2="14.6989" gradientUnits="userSpaceOnUse">
<stop stop-color="#00AFEC"/>
<stop offset="1" stop-color="#2F6BC3"/>
</linearGradient>
</defs>
</svg>
