<svg width="12" height="12" viewBox="0 0 12 12" fill="none" xmlns="http://www.w3.org/2000/svg">
<path d="M8.00109 11.3749H4.00109C1.69109 11.3749 1.26109 10.2999 1.15109 9.25488L0.77609 5.24988C0.72109 4.72488 0.70609 3.94988 1.22609 3.36988C1.67609 2.86988 2.42109 2.62988 3.50109 2.62988H8.50109C9.58609 2.62988 10.3311 2.87488 10.7761 3.36988C11.2961 3.94988 11.2811 4.72488 11.2261 5.25488L10.8511 9.24988C10.7411 10.2999 10.3111 11.3749 8.00109 11.3749ZM3.50109 3.37488C2.65609 3.37488 2.07609 3.53988 1.78109 3.86988C1.53609 4.13988 1.45609 4.55488 1.52109 5.17488L1.89609 9.17988C1.98109 9.96988 2.19609 10.6249 4.00109 10.6249H8.00109C9.80109 10.6249 10.0211 9.96988 10.1061 9.17488L10.4811 5.17988C10.5461 4.55488 10.4661 4.13988 10.2211 3.86988C9.92609 3.53988 9.34609 3.37488 8.50109 3.37488H3.50109Z" fill="#656865"/>
<path d="M8 3.375C7.795 3.375 7.625 3.205 7.625 3V2.6C7.625 1.71 7.625 1.375 6.4 1.375H5.6C4.375 1.375 4.375 1.71 4.375 2.6V3C4.375 3.205 4.205 3.375 4 3.375C3.795 3.375 3.625 3.205 3.625 3V2.6C3.625 1.72 3.625 0.625 5.6 0.625H6.4C8.375 0.625 8.375 1.72 8.375 2.6V3C8.375 3.205 8.205 3.375 8 3.375Z" fill="#656865"/>
<path d="M6 8.375C4.625 8.375 4.625 7.525 4.625 7.015V6.5C4.625 5.795 4.795 5.625 5.5 5.625H6.5C7.205 5.625 7.375 5.795 7.375 6.5V7C7.375 7.52 7.375 8.375 6 8.375ZM5.375 6.375C5.375 6.415 5.375 6.46 5.375 6.5V7.015C5.375 7.53 5.375 7.625 6 7.625C6.625 7.625 6.625 7.545 6.625 7.01V6.5C6.625 6.46 6.625 6.415 6.625 6.375C6.585 6.375 6.54 6.375 6.5 6.375H5.5C5.46 6.375 5.415 6.375 5.375 6.375Z" fill="#656865"/>
<path d="M6.9978 7.38512C6.8128 7.38512 6.6478 7.24512 6.6278 7.05512C6.6028 6.85012 6.7478 6.66012 6.9528 6.63512C8.2728 6.47012 9.5378 5.97012 10.6028 5.19512C10.7678 5.07012 11.0028 5.11012 11.1278 5.28012C11.2478 5.44512 11.2128 5.68012 11.0428 5.80512C9.8728 6.65512 8.4928 7.20012 7.0428 7.38512C7.0278 7.38512 7.0128 7.38512 6.9978 7.38512Z" fill="#656865"/>
<path d="M4.99841 7.38995C4.98341 7.38995 4.96841 7.38995 4.95341 7.38995C3.58341 7.23495 2.24841 6.73495 1.09341 5.94495C0.923408 5.82995 0.878408 5.59495 0.993408 5.42495C1.10841 5.25495 1.34341 5.20995 1.51341 5.32495C2.56841 6.04495 3.78341 6.49995 5.03341 6.64495C5.23841 6.66995 5.38841 6.85495 5.36341 7.05995C5.34841 7.24995 5.18841 7.38995 4.99841 7.38995Z" fill="#656865"/>
</svg>
