<svg width="20" height="20" viewBox="0 0 20 20" fill="none" xmlns="http://www.w3.org/2000/svg">
<path d="M10.8327 18.9584H4.16602C2.14935 18.9584 1.04102 17.85 1.04102 15.8334V9.16669C1.04102 7.15002 2.14935 6.04169 4.16602 6.04169H8.33268C8.67435 6.04169 8.95768 6.32502 8.95768 6.66669V15.8334C8.95768 17.15 9.51602 17.7084 10.8327 17.7084C11.1743 17.7084 11.4577 17.9917 11.4577 18.3334C11.4577 18.675 11.1743 18.9584 10.8327 18.9584ZM4.16602 7.29169C2.84935 7.29169 2.29102 7.85002 2.29102 9.16669V15.8334C2.29102 17.15 2.84935 17.7084 4.16602 17.7084H8.166C7.866 17.2167 7.70768 16.5917 7.70768 15.8334V7.29169H4.16602Z" fill="url(#paint0_linear_3447_12840)"/>
<path d="M8.33268 7.29165H4.16602C3.82435 7.29165 3.54102 7.00831 3.54102 6.66665V4.99998C3.54102 3.73331 4.56602 2.70831 5.83268 2.70831H8.42434C8.616 2.70831 8.79936 2.79996 8.91603 2.94996C9.03269 3.10829 9.07434 3.30832 9.02434 3.49165C8.97434 3.67498 8.95768 3.88331 8.95768 4.16665V6.66665C8.95768 7.00831 8.67435 7.29165 8.33268 7.29165ZM4.79102 6.04165H7.70768V4.16665C7.70768 4.09165 7.70768 4.02498 7.70768 3.95831H5.83268C5.25768 3.95831 4.79102 4.42498 4.79102 4.99998V6.04165Z" fill="url(#paint1_linear_3447_12840)"/>
<path d="M11.666 11.4584C11.3243 11.4584 11.041 11.175 11.041 10.8334V6.66669C11.041 6.32502 11.3243 6.04169 11.666 6.04169C12.0077 6.04169 12.291 6.32502 12.291 6.66669V10.8334C12.291 11.175 12.0077 11.4584 11.666 11.4584Z" fill="url(#paint2_linear_3447_12840)"/>
<path d="M15 11.4584C14.6583 11.4584 14.375 11.175 14.375 10.8334V6.66669C14.375 6.32502 14.6583 6.04169 15 6.04169C15.3417 6.04169 15.625 6.32502 15.625 6.66669V10.8334C15.625 11.175 15.3417 11.4584 15 11.4584Z" fill="url(#paint3_linear_3447_12840)"/>
<path d="M14.9993 18.9584H11.666C11.3243 18.9584 11.041 18.675 11.041 18.3334V15C11.041 14.2 11.6993 13.5417 12.4993 13.5417H14.166C14.966 13.5417 15.6243 14.2 15.6243 15V18.3334C15.6243 18.675 15.341 18.9584 14.9993 18.9584ZM12.291 17.7084H14.3743V15C14.3743 14.8834 14.2827 14.7917 14.166 14.7917H12.4993C12.3827 14.7917 12.291 14.8834 12.291 15V17.7084Z" fill="url(#paint4_linear_3447_12840)"/>
<path d="M5 14.7916C4.65833 14.7916 4.375 14.5083 4.375 14.1666V10.8333C4.375 10.4916 4.65833 10.2083 5 10.2083C5.34167 10.2083 5.625 10.4916 5.625 10.8333V14.1666C5.625 14.5083 5.34167 14.7916 5 14.7916Z" fill="url(#paint5_linear_3447_12840)"/>
<path d="M15.834 18.9584H10.834C8.81732 18.9584 7.70898 17.85 7.70898 15.8334V4.16669C7.70898 2.15002 8.81732 1.04169 10.834 1.04169H15.834C17.8507 1.04169 18.959 2.15002 18.959 4.16669V15.8334C18.959 17.85 17.8507 18.9584 15.834 18.9584ZM10.834 2.29169C9.51732 2.29169 8.95898 2.85002 8.95898 4.16669V15.8334C8.95898 17.15 9.51732 17.7084 10.834 17.7084H15.834C17.1507 17.7084 17.709 17.15 17.709 15.8334V4.16669C17.709 2.85002 17.1507 2.29169 15.834 2.29169H10.834Z" fill="url(#paint6_linear_3447_12840)"/>
<defs>
<linearGradient id="paint0_linear_3447_12840" x1="6.24935" y1="6.04169" x2="6.24935" y2="18.9584" gradientUnits="userSpaceOnUse">
<stop stop-color="#00AFEC"/>
<stop offset="1" stop-color="#2F6BC3"/>
</linearGradient>
<linearGradient id="paint1_linear_3447_12840" x1="6.29308" y1="2.70831" x2="6.29308" y2="7.29165" gradientUnits="userSpaceOnUse">
<stop stop-color="#00AFEC"/>
<stop offset="1" stop-color="#2F6BC3"/>
</linearGradient>
<linearGradient id="paint2_linear_3447_12840" x1="11.666" y1="6.04169" x2="11.666" y2="11.4584" gradientUnits="userSpaceOnUse">
<stop stop-color="#00AFEC"/>
<stop offset="1" stop-color="#2F6BC3"/>
</linearGradient>
<linearGradient id="paint3_linear_3447_12840" x1="15" y1="6.04169" x2="15" y2="11.4584" gradientUnits="userSpaceOnUse">
<stop stop-color="#00AFEC"/>
<stop offset="1" stop-color="#2F6BC3"/>
</linearGradient>
<linearGradient id="paint4_linear_3447_12840" x1="13.3327" y1="13.5417" x2="13.3327" y2="18.9584" gradientUnits="userSpaceOnUse">
<stop stop-color="#00AFEC"/>
<stop offset="1" stop-color="#2F6BC3"/>
</linearGradient>
<linearGradient id="paint5_linear_3447_12840" x1="5" y1="10.2083" x2="5" y2="14.7916" gradientUnits="userSpaceOnUse">
<stop stop-color="#00AFEC"/>
<stop offset="1" stop-color="#2F6BC3"/>
</linearGradient>
<linearGradient id="paint6_linear_3447_12840" x1="13.334" y1="1.04169" x2="13.334" y2="18.9584" gradientUnits="userSpaceOnUse">
<stop stop-color="#00AFEC"/>
<stop offset="1" stop-color="#2F6BC3"/>
</linearGradient>
</defs>
</svg>
