<svg width="20" height="20" viewBox="0 0 20 20" fill="none" xmlns="http://www.w3.org/2000/svg">
<path d="M12.0008 10.3602H6.40078C6.07278 10.3602 5.80078 10.0882 5.80078 9.76016C5.80078 9.43216 6.07278 9.16016 6.40078 9.16016H12.0008C12.3288 9.16016 12.6008 9.43216 12.6008 9.76016C12.6008 10.0882 12.3288 10.3602 12.0008 10.3602Z" fill="white"/>
<path d="M9.90478 13.5599H6.40078C6.07278 13.5599 5.80078 13.2879 5.80078 12.9599C5.80078 12.6319 6.07278 12.3599 6.40078 12.3599H9.90478C10.2328 12.3599 10.5048 12.6319 10.5048 12.9599C10.5048 13.2879 10.2328 13.5599 9.90478 13.5599Z" fill="white"/>
<path d="M11.2008 5.4H8.00078C7.23278 5.4 5.80078 5.4 5.80078 3.2C5.80078 1 7.23278 1 8.00078 1H11.2008C11.9688 1 13.4008 1 13.4008 3.2C13.4008 3.968 13.4008 5.4 11.2008 5.4ZM8.00078 2.2C7.20878 2.2 7.00078 2.2 7.00078 3.2C7.00078 4.2 7.20878 4.2 8.00078 4.2H11.2008C12.2008 4.2 12.2008 3.992 12.2008 3.2C12.2008 2.2 11.9928 2.2 11.2008 2.2H8.00078Z" fill="white"/>
<path d="M12.0008 18.1999H7.20078C2.70478 18.1999 1.80078 16.1359 1.80078 12.7999V7.99995C1.80078 4.35195 3.12078 2.79195 6.36878 2.62395C6.68878 2.60795 6.98478 2.85595 7.00078 3.19195C7.01678 3.52795 6.76078 3.79995 6.43278 3.81595C4.16078 3.94395 3.00078 4.62395 3.00078 7.99995V12.7999C3.00078 15.7599 3.58478 16.9999 7.20078 16.9999H12.0008C15.6168 16.9999 16.2008 15.7599 16.2008 12.7999V7.99995C16.2008 4.62395 15.0408 3.94395 12.7688 3.81595C12.4408 3.79995 12.1848 3.51195 12.2008 3.18395C12.2168 2.85595 12.5048 2.59995 12.8328 2.61595C16.0808 2.79195 17.4008 4.35195 17.4008 7.99195V12.7919C17.4008 16.1359 16.4968 18.1999 12.0008 18.1999Z" fill="white"/>
</svg>
