<svg width="20" height="20" viewBox="0 0 20 20" fill="none" xmlns="http://www.w3.org/2000/svg">
<path d="M4.11953 18.2C3.79153 18.2 3.51953 17.928 3.51953 17.6V1.6C3.51953 1.272 3.79153 1 4.11953 1C4.44753 1 4.71953 1.272 4.71953 1.6V17.6C4.71953 17.928 4.44753 18.2 4.11953 18.2Z" fill="white"/>
<path d="M13.0795 13.4001H4.11953C3.79153 13.4001 3.51953 13.1281 3.51953 12.8001C3.51953 12.4721 3.79153 12.2001 4.11953 12.2001H13.0795C13.9515 12.2001 14.3595 11.9681 14.4395 11.7681C14.5195 11.5681 14.3995 11.1201 13.7755 10.5041L12.8155 9.5441C12.4235 9.2001 12.1835 8.6801 12.1595 8.1041C12.1355 7.4961 12.3755 6.8961 12.8155 6.4561L13.7755 5.4961C14.3675 4.9041 14.5515 4.4241 14.4635 4.2161C14.3755 4.0081 13.9195 3.8001 13.0795 3.8001H4.11953C3.78353 3.8001 3.51953 3.5281 3.51953 3.2001C3.51953 2.8721 3.79153 2.6001 4.11953 2.6001H13.0795C14.8315 2.6001 15.3915 3.3281 15.5755 3.7601C15.7515 4.1921 15.8715 5.1041 14.6235 6.3521L13.6635 7.3121C13.4635 7.5121 13.3515 7.7921 13.3595 8.0721C13.3675 8.3121 13.4635 8.5281 13.6315 8.6801L14.6235 9.6641C15.8475 10.8881 15.7275 11.8001 15.5515 12.2401C15.3675 12.6641 14.7995 13.4001 13.0795 13.4001Z" fill="white"/>
</svg>
