<svg width="12" height="12" viewBox="0 0 12 12" fill="none" xmlns="http://www.w3.org/2000/svg">
<path d="M6 11.375C3.035 11.375 0.625 8.965 0.625 6C0.625 3.035 3.035 0.625 6 0.625C8.965 0.625 11.375 3.035 11.375 6C11.375 8.965 8.965 11.375 6 11.375ZM6 1.375C3.45 1.375 1.375 3.45 1.375 6C1.375 8.55 3.45 10.625 6 10.625C8.55 10.625 10.625 8.55 10.625 6C10.625 3.45 8.55 1.375 6 1.375Z" fill="#242525"/>
<path d="M4.50109 10.875H4.00109C3.79609 10.875 3.62609 10.705 3.62609 10.5C3.62609 10.295 3.78609 10.13 3.99109 10.125C3.20609 7.445 3.20609 4.555 3.99109 1.875C3.78609 1.87 3.62609 1.705 3.62609 1.5C3.62609 1.295 3.79609 1.125 4.00109 1.125H4.50109C4.62109 1.125 4.73609 1.185 4.80609 1.28C4.87609 1.38 4.89609 1.505 4.85609 1.62C3.91609 4.445 3.91609 7.555 4.85609 10.385C4.89609 10.5 4.87609 10.625 4.80609 10.725C4.73609 10.815 4.62109 10.875 4.50109 10.875Z" fill="#242525"/>
<path d="M7.50118 10.8748C7.46118 10.8748 7.42118 10.8698 7.38118 10.8548C7.18618 10.7898 7.07618 10.5748 7.14618 10.3798C8.08618 7.55485 8.08618 4.44485 7.14618 1.61485C7.08118 1.41985 7.18618 1.20485 7.38118 1.13985C7.58118 1.07485 7.79118 1.17985 7.85618 1.37485C8.85118 4.35485 8.85118 7.63485 7.85618 10.6098C7.80618 10.7748 7.65618 10.8748 7.50118 10.8748Z" fill="#242525"/>
<path d="M6 8.5999C4.605 8.5999 3.215 8.4049 1.875 8.0099C1.87 8.2099 1.705 8.3749 1.5 8.3749C1.295 8.3749 1.125 8.2049 1.125 7.9999V7.4999C1.125 7.3799 1.185 7.2649 1.28 7.1949C1.38 7.1249 1.505 7.1049 1.62 7.1449C4.445 8.0849 7.56 8.0849 10.385 7.1449C10.5 7.1049 10.625 7.1249 10.725 7.1949C10.825 7.2649 10.88 7.3799 10.88 7.4999V7.9999C10.88 8.2049 10.71 8.3749 10.505 8.3749C10.3 8.3749 10.135 8.2149 10.13 8.0099C8.785 8.4049 7.395 8.5999 6 8.5999Z" fill="#242525"/>
<path d="M10.5018 4.87518C10.4618 4.87518 10.4218 4.87018 10.3818 4.85518C7.55685 3.91518 4.44184 3.91518 1.61684 4.85518C1.41684 4.92018 1.20684 4.81518 1.14184 4.62018C1.08184 4.42018 1.18684 4.21018 1.38184 4.14518C4.36185 3.15018 7.64185 3.15018 10.6168 4.14518C10.8118 4.21018 10.9218 4.42518 10.8518 4.62018C10.8068 4.77518 10.6568 4.87518 10.5018 4.87518Z" fill="#242525"/>
</svg>
