<svg width="10" height="10" viewBox="0 0 10 10" fill="none" xmlns="http://www.w3.org/2000/svg">
<path d="M4.9987 9.47933C2.52786 9.47933 0.519531 7.471 0.519531 5.00016C0.519531 2.52933 2.52786 0.520996 4.9987 0.520996C7.46953 0.520996 9.47786 2.52933 9.47786 5.00016C9.47786 7.471 7.46953 9.47933 4.9987 9.47933ZM4.9987 1.146C2.8737 1.146 1.14453 2.87516 1.14453 5.00016C1.14453 7.12516 2.8737 8.85433 4.9987 8.85433C7.1237 8.85433 8.85286 7.12516 8.85286 5.00016C8.85286 2.87516 7.1237 1.146 4.9987 1.146Z" fill="white"/>
<path d="M3.75156 9.0625H3.3349C3.16406 9.0625 3.0224 8.92083 3.0224 8.75C3.0224 8.57917 3.15573 8.44167 3.32656 8.4375C2.6724 6.20417 2.6724 3.79583 3.32656 1.5625C3.15573 1.55833 3.0224 1.42083 3.0224 1.25C3.0224 1.07917 3.16406 0.9375 3.3349 0.9375H3.75156C3.85156 0.9375 3.9474 0.9875 4.00573 1.06667C4.06406 1.15 4.08073 1.25417 4.0474 1.35C3.26406 3.70417 3.26406 6.29583 4.0474 8.65417C4.08073 8.75 4.06406 8.85417 4.00573 8.9375C3.9474 9.0125 3.85156 9.0625 3.75156 9.0625Z" fill="white"/>
<path d="M6.25098 9.06262C6.21765 9.06262 6.18431 9.05845 6.15098 9.04595C5.98848 8.99178 5.89681 8.81262 5.95515 8.65012C6.73848 6.29595 6.73848 3.70428 5.95515 1.34595C5.90098 1.18345 5.98848 1.00428 6.15098 0.950116C6.31765 0.895949 6.49265 0.983449 6.54681 1.14595C7.37598 3.62928 7.37598 6.36262 6.54681 8.84178C6.50515 8.97928 6.38015 9.06262 6.25098 9.06262Z" fill="white"/>
<path d="M5 7.1665C3.8375 7.1665 2.67917 7.004 1.5625 6.67483C1.55833 6.8415 1.42083 6.979 1.25 6.979C1.07917 6.979 0.9375 6.83733 0.9375 6.6665V6.24983C0.9375 6.14983 0.9875 6.054 1.06667 5.99567C1.15 5.93733 1.25417 5.92067 1.35 5.954C3.70417 6.73733 6.3 6.73733 8.65417 5.954C8.75 5.92067 8.85417 5.93733 8.9375 5.99567C9.02083 6.054 9.06667 6.14983 9.06667 6.24983V6.6665C9.06667 6.83733 8.925 6.979 8.75417 6.979C8.58333 6.979 8.44583 6.84567 8.44167 6.67483C7.32083 7.004 6.1625 7.1665 5 7.1665Z" fill="white"/>
<path d="M8.75154 4.06273C8.7182 4.06273 8.68487 4.05856 8.65154 4.04606C6.29737 3.26273 3.70154 3.26273 1.34737 4.04606C1.1807 4.10023 1.0057 4.01273 0.951537 3.85023C0.901537 3.68356 0.989037 3.50856 1.15154 3.45439C3.63487 2.62523 6.3682 2.62523 8.84737 3.45439C9.00987 3.50856 9.10154 3.68773 9.0432 3.85023C9.0057 3.97939 8.8807 4.06273 8.75154 4.06273Z" fill="white"/>
</svg>
