<svg width="20" height="20" viewBox="0 0 20 20" fill="none" xmlns="http://www.w3.org/2000/svg">
<path d="M14.232 18.192H4.968C2.776 18.192 1 16.408 1 14.216V8.28797C1 7.19997 1.672 5.83197 2.536 5.15997L6.848 1.79997C8.144 0.791971 10.216 0.743971 11.56 1.68797L16.504 5.15197C17.456 5.81597 18.2 7.23997 18.2 8.39997V14.224C18.2 16.408 16.424 18.192 14.232 18.192ZM7.584 2.74397L3.272 6.10397C2.704 6.55197 2.2 7.56797 2.2 8.28797V14.216C2.2 15.744 3.44 16.992 4.968 16.992H14.232C15.76 16.992 17 15.752 17 14.224V8.39997C17 7.63197 16.448 6.56797 15.816 6.13597L10.872 2.67197C9.96 2.03197 8.456 2.06397 7.584 2.74397Z" fill="white"/>
<path d="M5.99839 13.8001C5.84639 13.8001 5.69439 13.7441 5.57439 13.6241C5.34239 13.3921 5.34239 13.0081 5.57439 12.7761L8.13439 10.2161C8.26239 10.0881 8.43039 10.0241 8.61439 10.0401C8.79039 10.0561 8.95039 10.1521 9.05439 10.3041L9.92639 11.6161L12.7664 8.77605C12.9984 8.54405 13.3824 8.54405 13.6144 8.77605C13.8464 9.00805 13.8464 9.39205 13.6144 9.62405L10.2544 12.9841C10.1264 13.1121 9.95839 13.1761 9.77439 13.1601C9.59839 13.1441 9.43839 13.0481 9.33439 12.8961L8.46239 11.5841L6.42239 13.6241C6.30239 13.7441 6.15039 13.8001 5.99839 13.8001Z" fill="white"/>
<path d="M13.2 11.4001C12.872 11.4001 12.6 11.1281 12.6 10.8001V9.8001H11.6C11.272 9.8001 11 9.5281 11 9.2001C11 8.8721 11.272 8.6001 11.6 8.6001H13.2C13.528 8.6001 13.8 8.8721 13.8 9.2001V10.8001C13.8 11.1281 13.528 11.4001 13.2 11.4001Z" fill="white"/>
</svg>
