<svg width="12" height="12" viewBox="0 0 12 12" fill="none" xmlns="http://www.w3.org/2000/svg">
<path d="M6.00141 7.08473C4.93641 7.08473 4.06641 6.21973 4.06641 5.14973C4.06641 4.07973 4.93641 3.21973 6.00141 3.21973C7.06641 3.21973 7.93641 4.08473 7.93641 5.15473C7.93641 6.22473 7.06641 7.08473 6.00141 7.08473ZM6.00141 3.96973C5.35141 3.96973 4.81641 4.49973 4.81641 5.15473C4.81641 5.80973 5.34641 6.33973 6.00141 6.33973C6.65641 6.33973 7.18641 5.80973 7.18641 5.15473C7.18641 4.49973 6.65141 3.96973 6.00141 3.96973Z" fill="#656865"/>
<path d="M6.00082 11.38C5.26082 11.38 4.51582 11.1 3.93582 10.545C2.46082 9.125 0.830821 6.86 1.44582 4.165C2.00082 1.72 4.13582 0.625 6.00082 0.625C6.00082 0.625 6.00082 0.625 6.00582 0.625C7.87082 0.625 10.0058 1.72 10.5608 4.17C11.1708 6.865 9.54082 9.125 8.06582 10.545C7.48582 11.1 6.74082 11.38 6.00082 11.38ZM6.00082 1.375C4.54582 1.375 2.67582 2.15 2.18082 4.33C1.64082 6.685 3.12082 8.715 4.46082 10C5.32582 10.835 6.68082 10.835 7.54582 10C8.88082 8.715 10.3608 6.685 9.83082 4.33C9.33082 2.15 7.45582 1.375 6.00082 1.375Z" fill="#656865"/>
</svg>
