<svg width="20" height="20" viewBox="0 0 20 20" fill="none" xmlns="http://www.w3.org/2000/svg">
<path d="M9.59961 12.6C6.28761 12.6 3.59961 10 3.59961 6.8C3.59961 3.6 6.28761 1 9.59961 1C12.9116 1 15.5996 3.6 15.5996 6.8C15.5996 10 12.9116 12.6 9.59961 12.6ZM9.59961 2.2C6.95161 2.2 4.79961 4.264 4.79961 6.8C4.79961 9.336 6.95161 11.4 9.59961 11.4C12.2476 11.4 14.3996 9.336 14.3996 6.8C14.3996 4.264 12.2476 2.2 9.59961 2.2Z" fill="white"/>
<path d="M12.4964 18.2C12.2724 18.2 12.0484 18.144 11.8164 18.04L9.66438 17.024C9.64038 17.016 9.55239 17.016 9.52039 17.024L7.3844 18.032C6.9124 18.256 6.4164 18.248 6.0324 18C5.6324 17.744 5.4004 17.272 5.4084 16.712L5.41639 10.808C5.41639 10.48 5.67239 10.192 6.01639 10.208C6.34439 10.208 6.61639 10.48 6.61639 10.808L6.6084 16.712C6.6084 16.888 6.6564 16.976 6.6804 16.984C6.6964 16.992 6.7684 17 6.8804 16.944L9.02439 15.928C9.36839 15.768 9.8404 15.768 10.1844 15.928L12.3364 16.944C12.4484 17 12.5204 16.992 12.5364 16.984C12.5604 16.968 12.6084 16.88 12.6084 16.712V10.664C12.6084 10.336 12.8804 10.064 13.2084 10.064C13.5364 10.064 13.8084 10.336 13.8084 10.664V16.712C13.8084 17.28 13.5764 17.744 13.1764 18C12.9684 18.136 12.7364 18.2 12.4964 18.2Z" fill="white"/>
</svg>
