<svg width="16" height="16" viewBox="0 0 16 16" fill="none" xmlns="http://www.w3.org/2000/svg">
<path d="M11.9996 5.27318C11.9796 5.27318 11.9662 5.27318 11.9462 5.27318H11.9129C10.6529 5.23318 9.71289 4.25985 9.71289 3.05984C9.71289 1.83318 10.7129 0.839844 11.9329 0.839844C13.1529 0.839844 14.1529 1.83984 14.1529 3.05984C14.1462 4.26651 13.2062 5.23985 12.0062 5.27985C12.0062 5.27318 12.0062 5.27318 11.9996 5.27318ZM11.9329 1.83318C11.2596 1.83318 10.7129 2.37985 10.7129 3.05318C10.7129 3.71318 11.2262 4.24652 11.8862 4.27318C11.8929 4.26652 11.9462 4.26652 12.0062 4.27318C12.6529 4.23985 13.1529 3.70652 13.1596 3.05318C13.1596 2.37985 12.6129 1.83318 11.9329 1.83318Z" fill="#656865"/>
<path d="M12.007 10.1866C11.747 10.1866 11.487 10.1666 11.227 10.1199C10.9537 10.0733 10.7737 9.81327 10.8203 9.53994C10.867 9.2666 11.127 9.0866 11.4003 9.13327C12.2203 9.27327 13.087 9.11994 13.667 8.73327C13.9803 8.52661 14.147 8.2666 14.147 8.0066C14.147 7.7466 13.9737 7.49327 13.667 7.2866C13.087 6.89993 12.207 6.7466 11.3803 6.89327C11.107 6.9466 10.847 6.75993 10.8003 6.4866C10.7537 6.21327 10.9337 5.95327 11.207 5.9066C12.2937 5.71327 13.4203 5.91993 14.2203 6.45327C14.807 6.8466 15.147 7.4066 15.147 8.0066C15.147 8.59993 14.8137 9.16661 14.2203 9.56661C13.6137 9.96661 12.827 10.1866 12.007 10.1866Z" fill="#656865"/>
<path d="M3.98031 5.2735C3.97365 5.2735 3.96698 5.2735 3.96698 5.2735C2.76698 5.2335 1.82698 4.26016 1.82031 3.06016C1.82031 1.83349 2.82031 0.833496 4.04031 0.833496C5.26031 0.833496 6.26031 1.8335 6.26031 3.0535C6.26031 4.26016 5.32031 5.2335 4.12031 5.2735L3.98031 4.7735L4.02698 5.2735C4.01365 5.2735 3.99365 5.2735 3.98031 5.2735ZM4.04698 4.2735C4.08698 4.2735 4.12031 4.27349 4.16031 4.28016C4.75365 4.25349 5.27365 3.72016 5.27365 3.06016C5.27365 2.38683 4.72698 1.84016 4.05365 1.84016C3.38031 1.84016 2.83365 2.38683 2.83365 3.06016C2.83365 3.71349 3.34031 4.24016 3.98698 4.28016C3.99365 4.27349 4.02031 4.2735 4.04698 4.2735Z" fill="#656865"/>
<path d="M3.97398 10.1866C3.15398 10.1866 2.36732 9.96661 1.76065 9.56661C1.17398 9.17327 0.833984 8.6066 0.833984 8.0066C0.833984 7.41327 1.17398 6.8466 1.76065 6.45327C2.56065 5.91993 3.68732 5.71327 4.77398 5.9066C5.04732 5.95327 5.22732 6.21327 5.18065 6.4866C5.13399 6.75993 4.87399 6.9466 4.60065 6.89327C3.77399 6.7466 2.90065 6.89993 2.31399 7.2866C2.00065 7.49327 1.83398 7.7466 1.83398 8.0066C1.83398 8.2666 2.00732 8.52661 2.31399 8.73327C2.89399 9.11994 3.76065 9.27327 4.58065 9.13327C4.85398 9.0866 5.11399 9.27327 5.16065 9.53994C5.20732 9.81327 5.02732 10.0733 4.75399 10.1199C4.49399 10.1666 4.23398 10.1866 3.97398 10.1866Z" fill="#656865"/>
<path d="M7.99956 10.2532C7.97956 10.2532 7.96622 10.2532 7.94622 10.2532H7.91289C6.65289 10.2132 5.71289 9.23983 5.71289 8.03983C5.71289 6.81316 6.71289 5.81982 7.93289 5.81982C9.15289 5.81982 10.1529 6.81983 10.1529 8.03983C10.1462 9.24649 9.20622 10.2198 8.00622 10.2598C8.00622 10.2532 8.00622 10.2532 7.99956 10.2532ZM7.93289 6.81316C7.25956 6.81316 6.71289 7.35983 6.71289 8.03316C6.71289 8.69316 7.22623 9.2265 7.88623 9.25316C7.89289 9.2465 7.94622 9.2465 8.00622 9.25316C8.65289 9.21983 9.15289 8.6865 9.15956 8.03316C9.15956 7.3665 8.61289 6.81316 7.93289 6.81316Z" fill="#656865"/>
<path d="M8.00018 15.1735C7.20018 15.1735 6.40018 14.9668 5.78018 14.5468C5.19352 14.1535 4.85352 13.5935 4.85352 12.9935C4.85352 12.4002 5.18685 11.8268 5.78018 11.4335C7.02685 10.6068 8.98018 10.6068 10.2202 11.4335C10.8069 11.8268 11.1469 12.3868 11.1469 12.9868C11.1469 13.5801 10.8135 14.1535 10.2202 14.5468C9.60018 14.9602 8.80018 15.1735 8.00018 15.1735ZM6.33352 12.2735C6.02018 12.4801 5.85352 12.7401 5.85352 13.0001C5.85352 13.2601 6.02685 13.5135 6.33352 13.7201C7.23352 14.3268 8.76018 14.3268 9.66018 13.7201C9.97352 13.5135 10.1402 13.2535 10.1402 12.9935C10.1402 12.7335 9.96685 12.4801 9.66018 12.2735C8.76685 11.6668 7.24018 11.6735 6.33352 12.2735Z" fill="#656865"/>
</svg>
