<svg width="20" height="20" viewBox="0 0 20 20" fill="none" xmlns="http://www.w3.org/2000/svg">
<path d="M15.0009 6.59148C14.9759 6.59148 14.9592 6.59148 14.9342 6.59148H14.8926C13.3176 6.54148 12.1426 5.32481 12.1426 3.82481C12.1426 2.29147 13.3926 1.0498 14.9176 1.0498C16.4426 1.0498 17.6926 2.29981 17.6926 3.82481C17.6842 5.33314 16.5092 6.54981 15.0092 6.59981C15.0092 6.59147 15.0092 6.59148 15.0009 6.59148ZM14.9176 2.29148C14.0759 2.29148 13.3926 2.97481 13.3926 3.81648C13.3926 4.64148 14.0342 5.30815 14.8592 5.34148C14.8676 5.33315 14.9342 5.33315 15.0092 5.34148C15.8176 5.29981 16.4426 4.63314 16.4509 3.81648C16.4509 2.97481 15.7676 2.29148 14.9176 2.29148Z" fill="url(#paint0_linear_3447_22052)"/>
<path d="M15.0097 12.7331C14.6847 12.7331 14.3597 12.7081 14.0347 12.6497C13.6931 12.5914 13.4681 12.2664 13.5264 11.9247C13.5847 11.5831 13.9097 11.3581 14.2514 11.4164C15.2764 11.5914 16.3597 11.3997 17.0847 10.9164C17.4764 10.6581 17.6847 10.3331 17.6847 10.0081C17.6847 9.68307 17.4681 9.3664 17.0847 9.10807C16.3597 8.62473 15.2597 8.43307 14.2264 8.6164C13.8847 8.68307 13.5597 8.44973 13.5014 8.10807C13.4431 7.7664 13.6681 7.44141 14.0097 7.38307C15.3681 7.14141 16.7764 7.39973 17.7764 8.0664C18.5097 8.55807 18.9347 9.25807 18.9347 10.0081C18.9347 10.7497 18.5181 11.4581 17.7764 11.9581C17.0181 12.4581 16.0347 12.7331 15.0097 12.7331Z" fill="url(#paint1_linear_3447_22052)"/>
<path d="M4.97539 6.59169C4.96706 6.59169 4.95873 6.59169 4.95873 6.59169C3.45873 6.54169 2.28372 5.32502 2.27539 3.82502C2.27539 2.29168 3.52539 1.04169 5.05039 1.04169C6.57539 1.04169 7.82539 2.29169 7.82539 3.81669C7.82539 5.32502 6.65039 6.54169 5.15039 6.59169L4.97539 5.96669L5.03373 6.59169C5.01706 6.59169 4.99206 6.59169 4.97539 6.59169ZM5.05872 5.34169C5.10872 5.34169 5.15039 5.34169 5.20039 5.35002C5.94206 5.31669 6.59206 4.65002 6.59206 3.82502C6.59206 2.98335 5.90873 2.30002 5.06706 2.30002C4.22539 2.30002 3.54206 2.98335 3.54206 3.82502C3.54206 4.64168 4.17539 5.30002 4.98372 5.35002C4.99206 5.34169 5.02539 5.34169 5.05872 5.34169Z" fill="url(#paint2_linear_3447_22052)"/>
<path d="M4.96602 12.7331C3.94102 12.7331 2.95768 12.4581 2.19935 11.9581C1.46602 11.4664 1.04102 10.7581 1.04102 10.0081C1.04102 9.2664 1.46602 8.55807 2.19935 8.0664C3.19935 7.39973 4.60768 7.14141 5.96602 7.38307C6.30768 7.44141 6.53268 7.7664 6.47435 8.10807C6.41602 8.44973 6.09102 8.68307 5.74935 8.6164C4.71602 8.43307 3.62435 8.62473 2.89102 9.10807C2.49935 9.3664 2.29102 9.68307 2.29102 10.0081C2.29102 10.3331 2.50768 10.6581 2.89102 10.9164C3.61602 11.3997 4.69935 11.5914 5.72435 11.4164C6.06601 11.3581 6.39102 11.5914 6.44935 11.9247C6.50768 12.2664 6.28268 12.5914 5.94102 12.6497C5.61602 12.7081 5.29102 12.7331 4.96602 12.7331Z" fill="url(#paint3_linear_3447_22052)"/>
<path d="M10.0009 12.8171C9.97591 12.8171 9.95924 12.8171 9.93424 12.8171H9.89258C8.31758 12.7671 7.14258 11.5504 7.14258 10.0504C7.14258 8.51706 8.39258 7.27539 9.91758 7.27539C11.4426 7.27539 12.6926 8.52539 12.6926 10.0504C12.6842 11.5587 11.5092 12.7754 10.0092 12.8254C10.0092 12.8171 10.0092 12.8171 10.0009 12.8171ZM9.91758 8.51706C9.07591 8.51706 8.39258 9.2004 8.39258 10.0421C8.39258 10.8671 9.03425 11.5337 9.85925 11.5671C9.86758 11.5587 9.93424 11.5587 10.0092 11.5671C10.8176 11.5254 11.4426 10.8587 11.4509 10.0421C11.4509 9.20873 10.7676 8.51706 9.91758 8.51706Z" fill="url(#paint4_linear_3447_22052)"/>
<path d="M9.99974 18.9664C8.99974 18.9664 7.99974 18.7081 7.22474 18.1831C6.49141 17.6914 6.06641 16.9914 6.06641 16.2414C6.06641 15.4998 6.48307 14.7831 7.22474 14.2914C8.78307 13.2581 11.2247 13.2581 12.7747 14.2914C13.5081 14.7831 13.9331 15.4831 13.9331 16.2331C13.9331 16.9748 13.5164 17.6914 12.7747 18.1831C11.9997 18.6998 10.9997 18.9664 9.99974 18.9664ZM7.91641 15.3414C7.52474 15.5998 7.31641 15.9248 7.31641 16.2498C7.31641 16.5748 7.53307 16.8914 7.91641 17.1498C9.04141 17.9081 10.9497 17.9081 12.0747 17.1498C12.4664 16.8914 12.6747 16.5664 12.6747 16.2414C12.6747 15.9164 12.4581 15.5998 12.0747 15.3414C10.9581 14.5831 9.04974 14.5914 7.91641 15.3414Z" fill="url(#paint5_linear_3447_22052)"/>
<defs>
<linearGradient id="paint0_linear_3447_22052" x1="14.9176" y1="1.0498" x2="14.9176" y2="6.59981" gradientUnits="userSpaceOnUse">
<stop stop-color="#00AFEC"/>
<stop offset="1" stop-color="#2F6BC3"/>
</linearGradient>
<linearGradient id="paint1_linear_3447_22052" x1="16.2135" y1="7.29413" x2="16.2135" y2="12.7331" gradientUnits="userSpaceOnUse">
<stop stop-color="#00AFEC"/>
<stop offset="1" stop-color="#2F6BC3"/>
</linearGradient>
<linearGradient id="paint2_linear_3447_22052" x1="5.05039" y1="1.04169" x2="5.05039" y2="6.59169" gradientUnits="userSpaceOnUse">
<stop stop-color="#00AFEC"/>
<stop offset="1" stop-color="#2F6BC3"/>
</linearGradient>
<linearGradient id="paint3_linear_3447_22052" x1="3.76228" y1="7.29413" x2="3.76228" y2="12.7331" gradientUnits="userSpaceOnUse">
<stop stop-color="#00AFEC"/>
<stop offset="1" stop-color="#2F6BC3"/>
</linearGradient>
<linearGradient id="paint4_linear_3447_22052" x1="9.91758" y1="7.27539" x2="9.91758" y2="12.8254" gradientUnits="userSpaceOnUse">
<stop stop-color="#00AFEC"/>
<stop offset="1" stop-color="#2F6BC3"/>
</linearGradient>
<linearGradient id="paint5_linear_3447_22052" x1="9.99974" y1="13.5164" x2="9.99974" y2="18.9664" gradientUnits="userSpaceOnUse">
<stop stop-color="#00AFEC"/>
<stop offset="1" stop-color="#2F6BC3"/>
</linearGradient>
</defs>
</svg>
