<svg width="20" height="20" viewBox="0 0 20 20" fill="none" xmlns="http://www.w3.org/2000/svg">
<path d="M7.32688 9.296C7.30288 9.296 7.28688 9.296 7.26288 9.296C7.22288 9.288 7.16687 9.288 7.11888 9.296C4.79887 9.224 3.04688 7.4 3.04688 5.152C3.04688 2.864 4.91088 1 7.19888 1C9.48688 1 11.3509 2.864 11.3509 5.152C11.3429 7.4 9.58288 9.224 7.35087 9.296C7.34288 9.296 7.33488 9.296 7.32688 9.296ZM7.19888 2.2C5.57488 2.2 4.24688 3.528 4.24688 5.152C4.24688 6.752 5.49487 8.04 7.08687 8.096C7.13488 8.088 7.23888 8.088 7.34288 8.096C8.91088 8.024 10.1429 6.736 10.1509 5.152C10.1509 3.528 8.82288 2.2 7.19888 2.2Z" fill="white"/>
<path d="M13.2323 9.4001C13.2083 9.4001 13.1843 9.4001 13.1603 9.3921C12.8323 9.4241 12.4963 9.1921 12.4643 8.8641C12.4323 8.5361 12.6323 8.2401 12.9603 8.2001C13.0563 8.1921 13.1603 8.1921 13.2483 8.1921C14.4163 8.1281 15.3283 7.1681 15.3283 5.9921C15.3283 4.7761 14.3443 3.7921 13.1283 3.7921C12.8003 3.8001 12.5283 3.5281 12.5283 3.2001C12.5283 2.8721 12.8003 2.6001 13.1283 2.6001C15.0003 2.6001 16.5283 4.1281 16.5283 6.0001C16.5283 7.8401 15.0883 9.3281 13.2563 9.4001C13.2483 9.4001 13.2403 9.4001 13.2323 9.4001Z" fill="white"/>
<path d="M7.3353 18.0402C5.7673 18.0402 4.1913 17.6402 2.9993 16.8402C1.8873 16.1042 1.2793 15.0962 1.2793 14.0002C1.2793 12.9042 1.8873 11.8882 2.9993 11.1442C5.3993 9.5522 9.2873 9.5522 11.6713 11.1442C12.7753 11.8802 13.3913 12.8882 13.3913 13.9842C13.3913 15.0802 12.7833 16.0962 11.6713 16.8402C10.4713 17.6402 8.9033 18.0402 7.3353 18.0402ZM3.6633 12.1522C2.8953 12.6642 2.4793 13.3202 2.4793 14.0082C2.4793 14.6882 2.9033 15.3442 3.6633 15.8482C5.6553 17.1842 9.0153 17.1842 11.0073 15.8482C11.7753 15.3362 12.1913 14.6802 12.1913 13.9922C12.1913 13.3122 11.7673 12.6562 11.0073 12.1522C9.0153 10.8242 5.6553 10.8242 3.6633 12.1522Z" fill="white"/>
<path d="M14.6717 16.6C14.3917 16.6 14.1437 16.408 14.0877 16.12C14.0237 15.792 14.2317 15.48 14.5517 15.408C15.0557 15.304 15.5197 15.104 15.8797 14.824C16.3357 14.48 16.5837 14.048 16.5837 13.592C16.5837 13.136 16.3357 12.704 15.8877 12.368C15.5357 12.096 15.0957 11.904 14.5757 11.784C14.2557 11.712 14.0477 11.392 14.1197 11.064C14.1917 10.744 14.5117 10.536 14.8397 10.608C15.5277 10.76 16.1277 11.032 16.6157 11.408C17.3597 11.968 17.7837 12.76 17.7837 13.592C17.7837 14.424 17.3517 15.216 16.6077 15.784C16.1117 16.168 15.4877 16.448 14.7997 16.584C14.7517 16.6 14.7117 16.6 14.6717 16.6Z" fill="white"/>
</svg>
