<svg width="10" height="10" viewBox="0 0 10 10" fill="none" xmlns="http://www.w3.org/2000/svg">
<path d="M3.8151 4.84183C3.8026 4.84183 3.79427 4.84183 3.78177 4.84183C3.76094 4.83766 3.73177 4.83766 3.70677 4.84183C2.49844 4.80433 1.58594 3.85433 1.58594 2.6835C1.58594 1.49183 2.55677 0.520996 3.74844 0.520996C4.9401 0.520996 5.91094 1.49183 5.91094 2.6835C5.90677 3.85433 4.9901 4.80433 3.8276 4.84183C3.82344 4.84183 3.81927 4.84183 3.8151 4.84183ZM3.74844 1.146C2.9026 1.146 2.21094 1.83766 2.21094 2.6835C2.21094 3.51683 2.86094 4.18766 3.6901 4.21683C3.7151 4.21266 3.76927 4.21266 3.82344 4.21683C4.6401 4.17933 5.28177 3.5085 5.28594 2.6835C5.28594 1.83766 4.59427 1.146 3.74844 1.146Z" fill="white"/>
<path d="M6.89002 4.89567C6.87752 4.89567 6.86502 4.89567 6.85252 4.8915C6.68169 4.90817 6.50669 4.78734 6.49002 4.6165C6.47336 4.44567 6.57752 4.2915 6.74836 4.27067C6.79836 4.2665 6.85252 4.2665 6.89836 4.2665C7.50669 4.23317 7.98169 3.73317 7.98169 3.12067C7.98169 2.48734 7.46919 1.97484 6.83586 1.97484C6.66502 1.979 6.52336 1.83734 6.52336 1.6665C6.52336 1.49567 6.66502 1.354 6.83586 1.354C7.81086 1.354 8.60669 2.14984 8.60669 3.12484C8.60669 4.08317 7.85669 4.85817 6.90252 4.89567C6.89836 4.89567 6.89419 4.89567 6.89002 4.89567Z" fill="white"/>
<path d="M3.82214 9.39567C3.00547 9.39567 2.18464 9.18734 1.5638 8.77067C0.984635 8.38734 0.667969 7.86234 0.667969 7.2915C0.667969 6.72067 0.984635 6.1915 1.5638 5.804C2.8138 4.97484 4.8388 4.97484 6.08047 5.804C6.65547 6.18734 6.9763 6.71234 6.9763 7.28317C6.9763 7.854 6.65964 8.38317 6.08047 8.77067C5.45547 9.18734 4.6388 9.39567 3.82214 9.39567ZM1.90964 6.329C1.50964 6.59567 1.29297 6.93734 1.29297 7.29567C1.29297 7.64984 1.5138 7.9915 1.90964 8.254C2.94714 8.94984 4.69714 8.94984 5.73464 8.254C6.13464 7.98734 6.3513 7.64567 6.3513 7.28734C6.3513 6.93317 6.13047 6.5915 5.73464 6.329C4.69714 5.63734 2.94714 5.63734 1.90964 6.329Z" fill="white"/>
<path d="M7.64222 8.64584C7.49639 8.64584 7.36722 8.54584 7.33806 8.39584C7.30472 8.22501 7.41306 8.06251 7.57972 8.02501C7.84222 7.97084 8.08389 7.86667 8.27139 7.72084C8.50889 7.54167 8.63806 7.31667 8.63806 7.07917C8.63806 6.84167 8.50889 6.61667 8.27556 6.44167C8.09222 6.30001 7.86306 6.20001 7.59222 6.13751C7.42556 6.10001 7.31722 5.93334 7.35472 5.76251C7.39222 5.59584 7.55889 5.48751 7.72972 5.52501C8.08806 5.60417 8.40056 5.74584 8.65472 5.94167C9.04222 6.23334 9.26306 6.64584 9.26306 7.07917C9.26306 7.51251 9.03806 7.92501 8.65056 8.22084C8.39222 8.42084 8.06722 8.56667 7.70889 8.63751C7.68389 8.64584 7.66306 8.64584 7.64222 8.64584Z" fill="white"/>
</svg>
