<svg width="12" height="12" viewBox="0 0 12 12" fill="none" xmlns="http://www.w3.org/2000/svg">
<path d="M4.58125 5.81C4.56625 5.81 4.55625 5.81 4.54125 5.81C4.51625 5.805 4.48125 5.805 4.45125 5.81C3.00125 5.765 1.90625 4.625 1.90625 3.22C1.90625 1.79 3.07125 0.625 4.50125 0.625C5.93125 0.625 7.09625 1.79 7.09625 3.22C7.09125 4.625 5.99125 5.765 4.59625 5.81C4.59125 5.81 4.58625 5.81 4.58125 5.81ZM4.50125 1.375C3.48625 1.375 2.65625 2.205 2.65625 3.22C2.65625 4.22 3.43625 5.025 4.43125 5.06C4.46125 5.055 4.52625 5.055 4.59125 5.06C5.57125 5.015 6.34125 4.21 6.34625 3.22C6.34625 2.205 5.51625 1.375 4.50125 1.375Z" fill="#242525"/>
<path d="M8.27115 5.875C8.25615 5.875 8.24115 5.875 8.22615 5.87C8.02115 5.89 7.81115 5.745 7.79115 5.54C7.77115 5.335 7.89615 5.15 8.10115 5.125C8.16115 5.12 8.22615 5.12 8.28115 5.12C9.01115 5.08 9.58115 4.48 9.58115 3.745C9.58115 2.985 8.96615 2.37 8.20615 2.37C8.00115 2.375 7.83115 2.205 7.83115 2C7.83115 1.795 8.00115 1.625 8.20615 1.625C9.37615 1.625 10.3312 2.58 10.3312 3.75C10.3312 4.9 9.43115 5.83 8.28615 5.875C8.28115 5.875 8.27615 5.875 8.27115 5.875Z" fill="#242525"/>
<path d="M4.58578 11.275C3.60578 11.275 2.62078 11.025 1.87578 10.525C1.18078 10.065 0.800781 9.435 0.800781 8.75C0.800781 8.065 1.18078 7.43 1.87578 6.965C3.37578 5.97 5.80578 5.97 7.29578 6.965C7.98578 7.425 8.37078 8.055 8.37078 8.74C8.37078 9.425 7.99078 10.06 7.29578 10.525C6.54578 11.025 5.56578 11.275 4.58578 11.275ZM2.29078 7.595C1.81078 7.915 1.55078 8.325 1.55078 8.755C1.55078 9.18 1.81578 9.59 2.29078 9.905C3.53578 10.74 5.63578 10.74 6.88078 9.905C7.36078 9.585 7.62078 9.175 7.62078 8.745C7.62078 8.32 7.35578 7.91 6.88078 7.595C5.63578 6.765 3.53578 6.765 2.29078 7.595Z" fill="#242525"/>
<path d="M9.16911 10.375C8.99411 10.375 8.83911 10.255 8.80411 10.075C8.76411 9.87001 8.89411 9.67501 9.09411 9.63001C9.40911 9.56501 9.69911 9.44001 9.92411 9.26501C10.2091 9.05001 10.3641 8.78001 10.3641 8.49501C10.3641 8.21001 10.2091 7.94001 9.92911 7.73001C9.70911 7.56001 9.43411 7.44001 9.10911 7.36501C8.90911 7.32001 8.77911 7.12001 8.82411 6.91501C8.86911 6.71501 9.06911 6.58501 9.27411 6.63001C9.70411 6.72501 10.0791 6.89501 10.3841 7.13001C10.8491 7.48001 11.1141 7.97501 11.1141 8.49501C11.1141 9.01501 10.8441 9.51001 10.3791 9.86501C10.0691 10.105 9.67911 10.28 9.24911 10.365C9.21911 10.375 9.19411 10.375 9.16911 10.375Z" fill="#242525"/>
</svg>
