<svg width="32" height="32" viewBox="0 0 32 32" fill="none" xmlns="http://www.w3.org/2000/svg">
<path d="M18.332 14C17.2254 14 16.332 13.1067 16.332 12C16.332 10.8933 17.2254 10 18.332 10C19.4387 10 20.332 10.8933 20.332 12C20.332 13.1067 19.4387 14 18.332 14ZM18.332 11.3333C17.9587 11.3333 17.6654 11.6267 17.6654 12C17.6654 12.3733 17.9587 12.6667 18.332 12.6667C18.7054 12.6667 18.9987 12.3733 18.9987 12C18.9987 11.6267 18.7054 11.3333 18.332 11.3333Z" fill="#879C87"/>
<path d="M13.668 14C12.5613 14 11.668 13.1067 11.668 12C11.668 10.8933 12.5613 10 13.668 10C14.7746 10 15.668 10.8933 15.668 12C15.668 13.1067 14.7746 14 13.668 14ZM13.668 11.3333C13.2946 11.3333 13.0013 11.6267 13.0013 12C13.0013 12.3733 13.2946 12.6667 13.668 12.6667C14.0413 12.6667 14.3346 12.3733 14.3346 12C14.3346 11.6267 14.0413 11.3333 13.668 11.3333Z" fill="#879C87"/>
<path d="M20.668 18C19.5613 18 18.668 17.1067 18.668 16C18.668 14.8933 19.5613 14 20.668 14C21.7746 14 22.668 14.8933 22.668 16C22.668 17.1067 21.7746 18 20.668 18ZM20.668 15.3333C20.2946 15.3333 20.0013 15.6267 20.0013 16C20.0013 16.3733 20.2946 16.6667 20.668 16.6667C21.0413 16.6667 21.3346 16.3733 21.3346 16C21.3346 15.6267 21.0413 15.3333 20.668 15.3333Z" fill="#879C87"/>
<path d="M22.8659 13.6663C21.9459 13.6663 21.1992 12.9197 21.1992 11.9997C21.1992 11.0797 21.9459 10.333 22.8659 10.333C23.7859 10.333 24.5326 11.0797 24.5326 11.9997C24.5326 12.9197 23.7859 13.6663 22.8659 13.6663ZM22.8659 11.6663C22.6792 11.6663 22.5326 11.813 22.5326 11.9997C22.5326 12.373 23.1992 12.373 23.1992 11.9997C23.1992 11.813 23.0526 11.6663 22.8659 11.6663Z" fill="#879C87"/>
<path d="M22.8659 21.6663C21.9459 21.6663 21.1992 20.9197 21.1992 19.9997C21.1992 19.0797 21.9459 18.333 22.8659 18.333C23.7859 18.333 24.5326 19.0797 24.5326 19.9997C24.5326 20.9197 23.7859 21.6663 22.8659 21.6663ZM22.8659 19.6663C22.6792 19.6663 22.5326 19.813 22.5326 19.9997C22.5326 20.373 23.1992 20.373 23.1992 19.9997C23.1992 19.813 23.0526 19.6663 22.8659 19.6663Z" fill="#879C87"/>
<path d="M26.3346 17.6663C25.4146 17.6663 24.668 16.9197 24.668 15.9997C24.668 15.0797 25.4146 14.333 26.3346 14.333C27.2546 14.333 28.0013 15.0797 28.0013 15.9997C28.0013 16.9197 27.2546 17.6663 26.3346 17.6663ZM26.3346 15.6663C26.148 15.6663 26.0013 15.813 26.0013 15.9997C26.0013 16.373 26.668 16.373 26.668 15.9997C26.668 15.813 26.5213 15.6663 26.3346 15.6663Z" fill="#879C87"/>
<path d="M9.0651 13.6663C8.1451 13.6663 7.39844 12.9197 7.39844 11.9997C7.39844 11.0797 8.1451 10.333 9.0651 10.333C9.9851 10.333 10.7318 11.0797 10.7318 11.9997C10.7318 12.9197 9.9851 13.6663 9.0651 13.6663ZM9.0651 11.6663C8.87844 11.6663 8.73177 11.813 8.73177 11.9997C8.73177 12.373 9.39844 12.373 9.39844 11.9997C9.39844 11.813 9.25177 11.6663 9.0651 11.6663Z" fill="#879C87"/>
<path d="M9.0651 21.6663C8.1451 21.6663 7.39844 20.9197 7.39844 19.9997C7.39844 19.0797 8.1451 18.333 9.0651 18.333C9.9851 18.333 10.7318 19.0797 10.7318 19.9997C10.7318 20.9197 9.9851 21.6663 9.0651 21.6663ZM9.0651 19.6663C8.87844 19.6663 8.73177 19.813 8.73177 19.9997C8.73177 20.373 9.39844 20.373 9.39844 19.9997C9.39844 19.813 9.25177 19.6663 9.0651 19.6663Z" fill="#879C87"/>
<path d="M5.60026 17.6663C4.68026 17.6663 3.93359 16.9197 3.93359 15.9997C3.93359 15.0797 4.68026 14.333 5.60026 14.333C6.52026 14.333 7.26693 15.0797 7.26693 15.9997C7.26693 16.9197 6.52026 17.6663 5.60026 17.6663ZM5.60026 15.6663C5.41359 15.6663 5.26693 15.813 5.26693 15.9997C5.26693 16.373 5.93359 16.373 5.93359 15.9997C5.93359 15.813 5.78693 15.6663 5.60026 15.6663Z" fill="#879C87"/>
<path d="M21.1979 8.59993C20.2779 8.59993 19.5312 7.85327 19.5312 6.93327C19.5312 6.01327 20.2779 5.2666 21.1979 5.2666C22.1179 5.2666 22.8646 6.01327 22.8646 6.93327C22.8646 7.85327 22.1179 8.59993 21.1979 8.59993ZM21.1979 6.59993C21.0112 6.59993 20.8646 6.7466 20.8646 6.93327C20.8646 7.3066 21.5312 7.3066 21.5312 6.93327C21.5312 6.7466 21.3846 6.59993 21.1979 6.59993Z" fill="#879C87"/>
<path d="M10.7995 8.59993C9.87948 8.59993 9.13281 7.85327 9.13281 6.93327C9.13281 6.01327 9.87948 5.2666 10.7995 5.2666C11.7195 5.2666 12.4661 6.01327 12.4661 6.93327C12.4661 7.85327 11.7195 8.59993 10.7995 8.59993ZM10.7995 6.59993C10.6128 6.59993 10.4661 6.7466 10.4661 6.93327C10.4661 7.3066 11.1328 7.3066 11.1328 6.93327C11.1328 6.7466 10.9861 6.59993 10.7995 6.59993Z" fill="#879C87"/>
<path d="M16.0651 9.66634C15.1451 9.66634 14.3984 8.91967 14.3984 7.99967C14.3984 7.07967 15.1451 6.33301 16.0651 6.33301C16.9851 6.33301 17.7318 7.07967 17.7318 7.99967C17.7318 8.91967 16.9851 9.66634 16.0651 9.66634ZM16.0651 7.66634C15.8784 7.66634 15.7318 7.81301 15.7318 7.99967C15.7318 8.37301 16.3984 8.37301 16.3984 7.99967C16.3984 7.81301 16.2518 7.66634 16.0651 7.66634Z" fill="#879C87"/>
<path d="M21.1979 27.0003C20.2779 27.0003 19.5312 26.2537 19.5312 25.3337C19.5312 24.4137 20.2779 23.667 21.1979 23.667C22.1179 23.667 22.8646 24.4137 22.8646 25.3337C22.8646 26.2537 22.1179 27.0003 21.1979 27.0003ZM21.1979 25.0003C21.0112 25.0003 20.8646 25.147 20.8646 25.3337C20.8646 25.707 21.5312 25.707 21.5312 25.3337C21.5312 25.147 21.3846 25.0003 21.1979 25.0003Z" fill="#879C87"/>
<path d="M10.7995 27.0003C9.87948 27.0003 9.13281 26.2537 9.13281 25.3337C9.13281 24.4137 9.87948 23.667 10.7995 23.667C11.7195 23.667 12.4661 24.4137 12.4661 25.3337C12.4661 26.2537 11.7195 27.0003 10.7995 27.0003ZM10.7995 25.0003C10.6128 25.0003 10.4661 25.147 10.4661 25.3337C10.4661 25.707 11.1328 25.707 11.1328 25.3337C11.1328 25.147 10.9861 25.0003 10.7995 25.0003Z" fill="#879C87"/>
<path d="M16.0651 25.9329C15.1451 25.9329 14.3984 25.1863 14.3984 24.2663C14.3984 23.3463 15.1451 22.5996 16.0651 22.5996C16.9851 22.5996 17.7318 23.3463 17.7318 24.2663C17.7318 25.1863 16.9851 25.9329 16.0651 25.9329ZM16.0651 23.9329C15.8784 23.9329 15.7318 24.0796 15.7318 24.2663C15.7318 24.6396 16.3984 24.6396 16.3984 24.2663C16.3984 24.0796 16.2518 23.9329 16.0651 23.9329Z" fill="#879C87"/>
<path d="M11.332 18C10.2254 18 9.33203 17.1067 9.33203 16C9.33203 14.8933 10.2254 14 11.332 14C12.4387 14 13.332 14.8933 13.332 16C13.332 17.1067 12.4387 18 11.332 18ZM11.332 15.3333C10.9587 15.3333 10.6654 15.6267 10.6654 16C10.6654 16.3733 10.9587 16.6667 11.332 16.6667C11.7054 16.6667 11.9987 16.3733 11.9987 16C11.9987 15.6267 11.7054 15.3333 11.332 15.3333Z" fill="#879C87"/>
<path d="M13.668 22C12.5613 22 11.668 21.1067 11.668 20C11.668 18.8933 12.5613 18 13.668 18C14.7746 18 15.668 18.8933 15.668 20C15.668 21.1067 14.7746 22 13.668 22ZM13.668 19.3333C13.2946 19.3333 13.0013 19.6267 13.0013 20C13.0013 20.3733 13.2946 20.6667 13.668 20.6667C14.0413 20.6667 14.3346 20.3733 14.3346 20C14.3346 19.6267 14.0413 19.3333 13.668 19.3333Z" fill="#879C87"/>
<path d="M18.332 22C17.2254 22 16.332 21.1067 16.332 20C16.332 18.8933 17.2254 18 18.332 18C19.4387 18 20.332 18.8933 20.332 20C20.332 21.1067 19.4387 22 18.332 22ZM18.332 19.3333C17.9587 19.3333 17.6654 19.6267 17.6654 20C17.6654 20.3733 17.9587 20.6667 18.332 20.6667C18.7054 20.6667 18.9987 20.3733 18.9987 20C18.9987 19.6267 18.7054 19.3333 18.332 19.3333Z" fill="#879C87"/>
<path d="M15.999 4.60026C15.2524 4.60026 14.6523 4.00026 14.6523 3.26693C14.6523 2.53359 15.2523 1.93359 15.9857 1.93359C16.719 1.93359 17.319 2.53359 17.319 3.26693C17.319 4.00026 16.7457 4.60026 15.999 4.60026Z" fill="#879C87"/>
<path d="M23.0016 4.7998C22.4416 4.7998 21.9883 4.34647 21.9883 3.7998C21.9883 3.25314 22.4416 2.7998 22.9883 2.7998C23.5349 2.7998 24.0016 3.25314 24.0016 3.7998C24.0016 4.34647 23.5616 4.7998 23.0016 4.7998Z" fill="#879C87"/>
<path d="M9 4.7998C8.45333 4.7998 8 4.34647 8 3.7998C8 3.25314 8.44 2.7998 9 2.7998H9.01335C9.56001 2.7998 10.0133 3.25314 10.0133 3.7998C10.0133 4.34647 9.56 4.7998 9 4.7998Z" fill="#879C87"/>
<path d="M15.999 29.9997C15.2524 29.9997 14.6523 29.3997 14.6523 28.6663C14.6523 27.933 15.2523 27.333 15.9857 27.333C16.719 27.333 17.319 27.933 17.319 28.6663C17.319 29.3997 16.7457 29.9997 15.999 29.9997Z" fill="#879C87"/>
<path d="M23.0016 29.1338C22.4416 29.1338 21.9883 28.6805 21.9883 28.1338C21.9883 27.5871 22.4416 27.1338 22.9883 27.1338C23.5349 27.1338 24.0016 27.5871 24.0016 28.1338C24.0016 28.6805 23.5616 29.1338 23.0016 29.1338Z" fill="#879C87"/>
<path d="M9 29.1338C8.45333 29.1338 8 28.6805 8 28.1338C8 27.5871 8.44 27.1338 9 27.1338H9.01335C9.56001 27.1338 10.0133 27.5871 10.0133 28.1338C10.0133 28.6805 9.56 29.1338 9 29.1338Z" fill="#879C87"/>
<path d="M2.06771 17.3337C1.33438 17.3337 0.734375 16.747 0.734375 16.0003C0.734375 15.267 1.33438 14.667 2.06771 14.667C2.80104 14.667 3.40104 15.267 3.40104 16.0003C3.40104 16.7337 2.80104 17.3337 2.06771 17.3337Z" fill="#879C87"/>
<path d="M5 23.6667C4.45333 23.6667 4 23.2267 4 22.6667V22.6533C4 22.1067 4.45333 21.6533 5 21.6533C5.54667 21.6533 6 22.1067 6 22.6533C6 23.2 5.54667 23.6667 5 23.6667Z" fill="#879C87"/>
<path d="M5 10.3467C4.45333 10.3467 4 9.89335 4 9.34668C4 8.80001 4.45333 8.34668 5 8.34668C5.54667 8.34668 6 8.78668 6 9.33335V9.34668C6 9.89335 5.54667 10.3467 5 10.3467Z" fill="#879C87"/>
<path d="M30.0013 17.3337C29.268 17.3337 28.668 16.747 28.668 16.0003C28.668 15.267 29.268 14.667 30.0013 14.667C30.7346 14.667 31.3346 15.267 31.3346 16.0003C31.3346 16.7337 30.7346 17.3337 30.0013 17.3337Z" fill="#879C87"/>
<path d="M27.0664 23.6667C26.5197 23.6667 26.0664 23.2267 26.0664 22.6667V22.6533C26.0664 22.1067 26.5197 21.6533 27.0664 21.6533C27.6131 21.6533 28.0664 22.1067 28.0664 22.6533C28.0664 23.2 27.6131 23.6667 27.0664 23.6667Z" fill="#879C87"/>
<path d="M27.0664 10.3467C26.5197 10.3467 26.0664 9.89335 26.0664 9.34668C26.0664 8.80001 26.5197 8.34668 27.0664 8.34668C27.6131 8.34668 28.0664 8.78668 28.0664 9.34668V9.36001C28.0664 9.89335 27.6131 10.3467 27.0664 10.3467Z" fill="#879C87"/>
</svg>
