<svg width="32" height="32" viewBox="0 0 32 32" fill="none" xmlns="http://www.w3.org/2000/svg">
<path d="M16.0013 30.3337C8.09464 30.3337 1.66797 23.907 1.66797 16.0003C1.66797 8.09366 8.09464 1.66699 16.0013 1.66699C23.908 1.66699 30.3346 8.09366 30.3346 16.0003C30.3346 23.907 23.908 30.3337 16.0013 30.3337ZM16.0013 3.66699C9.2013 3.66699 3.66797 9.20033 3.66797 16.0003C3.66797 22.8003 9.2013 28.3337 16.0013 28.3337C22.8013 28.3337 28.3346 22.8003 28.3346 16.0003C28.3346 9.20033 22.8013 3.66699 16.0013 3.66699Z" fill="#879C87"/>
<path d="M12.0003 29H10.667C10.1203 29 9.66698 28.5467 9.66698 28C9.66698 27.4533 10.0936 27.0133 10.6403 27C8.54698 19.8533 8.54698 12.1467 10.6403 5C10.0936 4.98667 9.66698 4.54667 9.66698 4C9.66698 3.45333 10.1203 3 10.667 3H12.0003C12.3203 3 12.627 3.16 12.8136 3.41333C13.0003 3.68 13.0536 4.01333 12.947 4.32C10.4403 11.8533 10.4403 20.1467 12.947 27.6933C13.0536 28 13.0003 28.3333 12.8136 28.6C12.627 28.84 12.3203 29 12.0003 29Z" fill="#879C87"/>
<path d="M19.9992 28.9996C19.8926 28.9996 19.7859 28.9863 19.6792 28.9463C19.1592 28.7729 18.8659 28.1996 19.0526 27.6796C21.5592 20.1463 21.5592 11.8529 19.0526 4.30626C18.8792 3.78626 19.1592 3.21292 19.6792 3.03959C20.2126 2.86626 20.7726 3.14626 20.9459 3.66626C23.5992 11.6129 23.5992 20.3596 20.9459 28.2929C20.8126 28.7329 20.4126 28.9996 19.9992 28.9996Z" fill="#879C87"/>
<path d="M16 22.9334C12.28 22.9334 8.57333 22.4134 5 21.3601C4.98667 21.8934 4.54667 22.3334 4 22.3334C3.45333 22.3334 3 21.8801 3 21.3334V20.0001C3 19.6801 3.16 19.3734 3.41333 19.1867C3.68 19.0001 4.01333 18.9467 4.32 19.0534C11.8533 21.5601 20.16 21.5601 27.6933 19.0534C28 18.9467 28.3333 19.0001 28.6 19.1867C28.8667 19.3734 29.0133 19.6801 29.0133 20.0001V21.3334C29.0133 21.8801 28.56 22.3334 28.0133 22.3334C27.4667 22.3334 27.0267 21.9067 27.0133 21.3601C23.4267 22.4134 19.72 22.9334 16 22.9334Z" fill="#879C87"/>
<path d="M28.001 13.0001C27.8943 13.0001 27.7877 12.9868 27.681 12.9468C20.1477 10.4401 11.841 10.4401 4.30768 12.9468C3.77435 13.1201 3.21435 12.8401 3.04101 12.3201C2.88101 11.7868 3.16101 11.2268 3.68101 11.0535C11.6277 8.40014 20.3743 8.40014 28.3077 11.0535C28.8277 11.2268 29.121 11.8001 28.9343 12.3201C28.8144 12.7335 28.4143 13.0001 28.001 13.0001Z" fill="#879C87"/>
</svg>
