<svg width="32" height="32" viewBox="0 0 32 32" fill="none" xmlns="http://www.w3.org/2000/svg">
<path d="M10.668 7.66699C10.1213 7.66699 9.66797 7.21366 9.66797 6.66699V2.66699C9.66797 2.12033 10.1213 1.66699 10.668 1.66699C11.2146 1.66699 11.668 2.12033 11.668 2.66699V6.66699C11.668 7.21366 11.2146 7.66699 10.668 7.66699Z" fill="#879C87"/>
<path d="M21.332 7.66699C20.7854 7.66699 20.332 7.21366 20.332 6.66699V2.66699C20.332 2.12033 20.7854 1.66699 21.332 1.66699C21.8787 1.66699 22.332 2.12033 22.332 2.66699V6.66699C22.332 7.21366 21.8787 7.66699 21.332 7.66699Z" fill="#879C87"/>
<path d="M19.5733 30.3337H10.6667C5.8 30.3337 3 27.5337 3 22.667V11.3337C3 6.46699 5.8 3.66699 10.6667 3.66699H21.3333C26.2 3.66699 29 6.46699 29 11.3337V18.1737C29 18.5603 28.7733 18.907 28.44 19.0803C28.0933 19.2403 27.68 19.2003 27.3867 18.9603C25.28 17.2803 22.04 17.2803 19.9333 19.0003C18.4934 20.1337 17.68 21.827 17.68 23.6803C17.68 24.7737 17.9733 25.8403 18.5467 26.7603C18.9867 27.4803 19.5333 28.0804 20.1733 28.5337C20.52 28.787 20.68 29.2403 20.5467 29.6536C20.3867 30.0536 20.0133 30.3337 19.5733 30.3337ZM10.6667 5.66699C6.85333 5.66699 5 7.52033 5 11.3337V22.667C5 26.4803 6.85333 28.3337 10.6667 28.3337H17.1867C17.0534 28.1603 16.9333 27.9737 16.8267 27.787C16.0667 26.5604 15.6667 25.1337 15.6667 23.667C15.6667 21.2003 16.76 18.9337 18.68 17.427C20.96 15.5737 24.3333 15.1736 27 16.4003V11.3337C27 7.52033 25.1467 5.66699 21.3333 5.66699H10.6667Z" fill="#879C87"/>
<path d="M17.332 15.667H9.33203C8.78536 15.667 8.33203 15.2137 8.33203 14.667C8.33203 14.1203 8.78536 13.667 9.33203 13.667H17.332C17.8787 13.667 18.332 14.1203 18.332 14.667C18.332 15.2137 17.8787 15.667 17.332 15.667Z" fill="#879C87"/>
<path d="M12.8254 22.333H9.33203C8.78536 22.333 8.33203 21.8797 8.33203 21.333C8.33203 20.7863 8.78536 20.333 9.33203 20.333H12.8254C13.372 20.333 13.8254 20.7863 13.8254 21.333C13.8254 21.8797 13.3854 22.333 12.8254 22.333Z" fill="#879C87"/>
<path d="M23.668 31.6666C21.9613 31.6666 20.348 31.1333 18.988 30.1466C18.1346 29.5333 17.4013 28.7333 16.828 27.7867C16.068 26.56 15.668 25.1333 15.668 23.6666C15.668 21.2 16.7613 18.9333 18.6813 17.4266C21.4546 15.1733 25.828 15.1599 28.628 17.3866C30.5613 18.9066 31.668 21.2 31.668 23.6666C31.668 25.1333 31.268 26.56 30.508 27.7867C30.0813 28.52 29.5346 29.16 28.908 29.68C27.4813 30.96 25.6146 31.6666 23.668 31.6666ZM23.668 17.6666C22.308 17.6666 20.9746 18.1333 19.9213 18.9866C18.4813 20.12 17.668 21.8133 17.668 23.6666C17.668 24.76 17.9613 25.8266 18.5346 26.7466C18.9746 27.4666 19.5213 28.0667 20.1613 28.52C21.188 29.2667 22.4013 29.6666 23.668 29.6666C25.148 29.6666 26.508 29.1466 27.6013 28.1733C28.0813 27.7733 28.468 27.3066 28.788 26.76C29.3613 25.8266 29.668 24.76 29.668 23.6666C29.668 21.8133 28.8413 20.1066 27.388 18.9599C26.3213 18.1066 25.0413 17.6666 23.668 17.6666Z" fill="#879C87"/>
<path d="M23.6654 27.9997C23.1187 27.9997 22.6654 27.5463 22.6654 26.9997C22.6654 25.7197 21.612 24.6663 20.332 24.6663C19.7854 24.6663 19.332 24.213 19.332 23.6663C19.332 23.1197 19.7854 22.6663 20.332 22.6663C21.612 22.6663 22.6654 21.613 22.6654 20.333C22.6654 19.7863 23.1187 19.333 23.6654 19.333C24.212 19.333 24.6654 19.7863 24.6654 20.333C24.6654 21.613 25.7187 22.6663 26.9987 22.6663C27.5454 22.6663 27.9987 23.1197 27.9987 23.6663C27.9987 24.213 27.5454 24.6663 26.9987 24.6663C25.7187 24.6663 24.6654 25.7197 24.6654 26.9997C24.6654 27.5463 24.212 27.9997 23.6654 27.9997ZM23.092 23.6663C23.292 23.8397 23.492 24.0263 23.6654 24.2397C23.8387 24.0397 24.0254 23.8397 24.2387 23.6663C24.0387 23.493 23.8387 23.3064 23.6654 23.093C23.492 23.3064 23.3054 23.493 23.092 23.6663Z" fill="#879C87"/>
</svg>
