<svg width="32" height="32" viewBox="0 0 32 32" fill="none" xmlns="http://www.w3.org/2000/svg">
<path d="M9.17188 25.2004C8.62521 25.2004 8.17188 24.7471 8.17188 24.2004V21.4404C8.17188 20.8938 8.62521 20.4404 9.17188 20.4404C9.71854 20.4404 10.1719 20.8938 10.1719 21.4404V24.2004C10.1719 24.7604 9.71854 25.2004 9.17188 25.2004Z" fill="#879C87"/>
<path d="M16 25.2003C15.4533 25.2003 15 24.747 15 24.2003V18.667C15 18.1203 15.4533 17.667 16 17.667C16.5467 17.667 17 18.1203 17 18.667V24.2003C17 24.7603 16.5467 25.2003 16 25.2003Z" fill="#879C87"/>
<path d="M22.8281 25.1996C22.2815 25.1996 21.8281 24.7462 21.8281 24.1996V15.9062C21.8281 15.3596 22.2815 14.9062 22.8281 14.9062C23.3748 14.9062 23.8281 15.3596 23.8281 15.9062V24.1996C23.8281 24.7596 23.3881 25.1996 22.8281 25.1996Z" fill="#879C87"/>
<path d="M9.17148 17.5729C8.71814 17.5729 8.31814 17.2662 8.19814 16.8129C8.06481 16.2796 8.38481 15.7329 8.93148 15.5996C13.8381 14.3729 18.1581 11.6929 21.4515 7.86623L22.0648 7.14623C22.4248 6.7329 23.0515 6.67957 23.4781 7.03957C23.8915 7.39957 23.9448 8.02623 23.5848 8.4529L22.9715 9.1729C19.4115 13.3329 14.7181 16.2262 9.41148 17.5462C9.33148 17.5729 9.25148 17.5729 9.17148 17.5729Z" fill="#879C87"/>
<path d="M22.8285 12.6931C22.2819 12.6931 21.8285 12.2398 21.8285 11.6931V8.7998H18.9219C18.3752 8.7998 17.9219 8.34647 17.9219 7.7998C17.9219 7.25314 18.3752 6.7998 18.9219 6.7998H22.8285C23.3752 6.7998 23.8285 7.25314 23.8285 7.7998V11.7065C23.8285 12.2531 23.3885 12.6931 22.8285 12.6931Z" fill="#879C87"/>
<path d="M20.0013 30.3337H12.0013C4.7613 30.3337 1.66797 27.2403 1.66797 20.0003V12.0003C1.66797 4.76033 4.7613 1.66699 12.0013 1.66699H20.0013C27.2413 1.66699 30.3346 4.76033 30.3346 12.0003V20.0003C30.3346 27.2403 27.2413 30.3337 20.0013 30.3337ZM12.0013 3.66699C5.85463 3.66699 3.66797 5.85366 3.66797 12.0003V20.0003C3.66797 26.147 5.85463 28.3337 12.0013 28.3337H20.0013C26.148 28.3337 28.3346 26.147 28.3346 20.0003V12.0003C28.3346 5.85366 26.148 3.66699 20.0013 3.66699H12.0013Z" fill="#879C87"/>
</svg>
