<svg width="24" height="24" viewBox="0 0 24 24" fill="none" xmlns="http://www.w3.org/2000/svg">
<path d="M21.091 6.98002C20.241 6.04002 18.821 5.57002 16.761 5.57002H16.521V5.53002C16.521 3.85002 16.521 1.77002 12.761 1.77002H11.241C7.48101 1.77002 7.48101 3.86002 7.48101 5.53002V5.58002H7.24101C5.17101 5.58002 3.76101 6.05002 2.91101 6.99002C1.92101 8.09002 1.95101 9.57002 2.05101 10.58L2.06101 10.65L2.13847 11.4633C2.15273 11.6131 2.2334 11.7484 2.35929 11.8307C2.59909 11.9877 3.00044 12.2464 3.24101 12.38C3.38101 12.47 3.53101 12.55 3.68101 12.63C5.39101 13.57 7.27101 14.2 9.18101 14.51C9.27101 15.45 9.68101 16.55 11.871 16.55C14.061 16.55 14.491 15.46 14.561 14.49C16.601 14.16 18.571 13.45 20.351 12.41C20.411 12.38 20.451 12.35 20.501 12.32C20.8977 12.0958 21.3093 11.8195 21.6845 11.5489C21.7975 11.4673 21.8698 11.3413 21.8852 11.2028L21.901 11.06L21.951 10.59C21.961 10.53 21.961 10.48 21.971 10.41C22.051 9.40002 22.031 8.02002 21.091 6.98002ZM13.091 13.83C13.091 14.89 13.091 15.05 11.861 15.05C10.631 15.05 10.631 14.86 10.631 13.84V12.58H13.091V13.83ZM8.91101 5.57002V5.53002C8.91101 3.83002 8.91101 3.20002 11.241 3.20002H12.761C15.091 3.20002 15.091 3.84002 15.091 5.53002V5.58002H8.91101V5.57002Z" fill="#00AFEC"/>
<path d="M20.8733 13.7344C21.2269 13.5661 21.6342 13.8464 21.5988 14.2364L21.2398 18.1902C21.0298 20.1902 20.2098 22.2302 15.8098 22.2302H8.18984C3.78984 22.2302 2.96984 20.1902 2.75984 18.2002L2.41913 14.4524C2.38409 14.0669 2.78205 13.787 3.13468 13.9465C4.2741 14.462 6.37724 15.3766 7.67641 15.7169C7.84072 15.7599 7.97361 15.8775 8.04556 16.0314C8.65253 17.3295 9.96896 18.0202 11.8698 18.0202C13.752 18.0202 15.085 17.3029 15.694 16.0016C15.766 15.8476 15.8991 15.7301 16.0635 15.6868C17.443 15.3238 19.6816 14.3015 20.8733 13.7344Z" fill="#00AFEC"/>
</svg>
