<svg width="20" height="17" viewBox="0 0 20 17" fill="none" xmlns="http://www.w3.org/2000/svg">
<path d="M18.2819 3.2925L14.2819 6.1525C13.7519 6.5325 12.9919 6.3025 12.7619 5.6925L10.8719 0.6525C10.5519 -0.2175 9.32186 -0.2175 9.00186 0.6525L7.10186 5.6825C6.87186 6.3025 6.12186 6.5325 5.59186 6.1425L1.59186 3.2825C0.79186 2.7225 -0.26814 3.5125 0.0618599 4.4425L4.22186 16.0925C4.36186 16.4925 4.74186 16.7525 5.16186 16.7525H14.6919C15.1119 16.7525 15.4919 16.4825 15.6319 16.0925L19.7919 4.4425C20.1319 3.5125 19.0719 2.7225 18.2819 3.2925ZM12.4319 12.5225H7.43186C7.02186 12.5225 6.68186 12.1825 6.68186 11.7725C6.68186 11.3625 7.02186 11.0225 7.43186 11.0225H12.4319C12.8419 11.0225 13.1819 11.3625 13.1819 11.7725C13.1819 12.1825 12.8419 12.5225 12.4319 12.5225Z" fill="url(#paint0_linear_1633_37283)"/>
<defs>
<linearGradient id="paint0_linear_1633_37283" x1="9.92858" y1="0" x2="9.92858" y2="16.7525" gradientUnits="userSpaceOnUse">
<stop stop-color="#F7BC06"/>
<stop offset="1" stop-color="#BE801D"/>
</linearGradient>
</defs>
</svg>
