<svg width="19" height="19" viewBox="0 0 19 19" fill="none" xmlns="http://www.w3.org/2000/svg">
<path fill-rule="evenodd" clip-rule="evenodd" d="M17.1073 0C17.9685 0 18.6667 0.697687 18.6667 1.5594V17.1073C18.6667 17.9685 17.969 18.6667 17.1073 18.6667H1.5594C0.698169 18.6667 0 17.969 0 17.1073V1.5594C0 0.698169 0.697687 0 1.5594 0H17.1073ZM12.6175 7C11.3024 7 10.3996 7.57695 9.99164 8.25085L9.91667 8.38678V7.11667H7.38889V16.0611H10.1111V11.7285C10.1111 10.2764 10.6458 9.35278 11.9311 9.35278C12.8091 9.35278 13.1823 10.1217 13.2192 11.4942L13.2222 11.7285V16.0611H15.9444V11.1211C15.9444 8.45367 15.3063 7 12.6175 7ZM5.44444 7H2.72222V15.9444H5.44444V7ZM4.08333 2.33333C3.11694 2.33333 2.33333 3.11694 2.33333 4.08333C2.33333 5.04972 3.11694 5.83333 4.08333 5.83333C5.04972 5.83333 5.83333 5.04972 5.83333 4.08333C5.83333 3.11694 5.04972 2.33333 4.08333 2.33333Z" fill="#0B0C0B"/>
</svg>
