<svg width="16" height="16" viewBox="0 0 16 16" fill="none" xmlns="http://www.w3.org/2000/svg">
<path d="M14.1668 12.3132L13.0668 12.5732C12.8202 12.6332 12.6268 12.8199 12.5735 13.0666L12.3402 14.0466C12.2135 14.5799 11.5335 14.7466 11.1802 14.3266L9.18683 12.0332C9.02683 11.8466 9.11349 11.5532 9.35349 11.4932C10.5335 11.2066 11.5935 10.5466 12.3735 9.60658C12.5002 9.45324 12.7268 9.43324 12.8668 9.57324L14.3468 11.0532C14.8535 11.5599 14.6735 12.1932 14.1668 12.3132Z" fill="white"/>
<path d="M1.80011 12.3132L2.90011 12.5732C3.14678 12.6332 3.34011 12.8199 3.39344 13.0666L3.62678 14.0466C3.75344 14.5799 4.43344 14.7466 4.78678 14.3266L6.78011 12.0332C6.94011 11.8466 6.85344 11.5532 6.61344 11.4932C5.43344 11.2066 4.37344 10.5466 3.59344 9.60658C3.46678 9.45324 3.24011 9.43324 3.10011 9.57324L1.62011 11.0532C1.11344 11.5599 1.29344 12.1932 1.80011 12.3132Z" fill="white"/>
<path d="M8.00065 1.3335C5.42065 1.3335 3.33398 3.42016 3.33398 6.00016C3.33398 6.96683 3.62065 7.8535 4.11398 8.5935C4.83398 9.66016 5.97398 10.4135 7.30065 10.6068C7.52732 10.6468 7.76065 10.6668 8.00065 10.6668C8.24065 10.6668 8.47398 10.6468 8.70065 10.6068C10.0273 10.4135 11.1673 9.66016 11.8873 8.5935C12.3807 7.8535 12.6673 6.96683 12.6673 6.00016C12.6673 3.42016 10.5807 1.3335 8.00065 1.3335ZM10.0407 5.8535L9.48732 6.40683C9.39398 6.50016 9.34065 6.68016 9.37398 6.8135L9.53398 7.50016C9.66065 8.04016 9.37398 8.2535 8.89398 7.96683L8.22732 7.5735C8.10732 7.50016 7.90732 7.50016 7.78732 7.5735L7.12065 7.96683C6.64065 8.24683 6.35398 8.04016 6.48065 7.50016L6.64065 6.8135C6.66732 6.68683 6.62065 6.50016 6.52732 6.40683L5.96065 5.8535C5.63398 5.52683 5.74065 5.20016 6.19398 5.12683L6.90732 5.00683C7.02732 4.98683 7.16732 4.88016 7.22065 4.7735L7.61398 3.98683C7.82732 3.56016 8.17398 3.56016 8.38732 3.98683L8.78065 4.7735C8.83398 4.88016 8.97398 4.98683 9.10065 5.00683L9.81398 5.12683C10.2607 5.20016 10.3673 5.52683 10.0407 5.8535Z" fill="white"/>
</svg>
