<svg width="24" height="24" viewBox="0 0 24 24" fill="none" xmlns="http://www.w3.org/2000/svg">
<circle cx="9.00195" cy="6" r="4" fill="black"/>
<ellipse cx="9.00195" cy="17.001" rx="7" ry="4" fill="black"/>
<path d="M20.9991 17.0007C20.9991 18.6576 18.9636 20.0007 16.4783 20.0007C17.2105 19.2003 17.714 18.1958 17.714 17.0021C17.714 15.807 17.2093 14.8015 16.4758 14.0007C18.961 14.0007 20.9991 15.3438 20.9991 17.0007Z" fill="black"/>
<path d="M17.9991 6.00098C17.9991 7.65783 16.656 9.00098 14.9991 9.00098C14.6379 9.00098 14.2915 8.93711 13.9707 8.82006C14.4438 7.98796 14.714 7.02547 14.714 5.99986C14.714 4.97501 14.4442 4.01318 13.9718 3.18151C14.2922 3.0647 14.6382 3.00098 14.9991 3.00098C16.656 3.00098 17.9991 4.34412 17.9991 6.00098Z" fill="black"/>
</svg>
